<svg xmlns="http://www.w3.org/2000/svg" version="1.0" viewBox="0 800 4096 2496"><path d="M2031.5 905c-14 2.5-19.4 3-35.7 3-16 0-18.1.2-21 2-2.8 1.7-5.1 2-14.2 2-9 0-11.3.3-12.9 1.7-1.4 1.4-4.1 1.9-10.4 2.2-6.7.2-8.9.7-10.4 2.2-1.5 1.5-3.4 1.9-8.8 1.9-7.7 0-10.1.6-10.1 2.5 0 .9-2.2 1.4-7.1 1.7-5.4.3-7.3.8-8 2.1-.8 1.3-2.3 1.7-6.5 1.7-4.1 0-6.3.5-8.1 2-1.5 1.2-4.1 2-6.2 2-2.4 0-4.2.7-5.4 2-1.2 1.5-2.9 2-6.5 2s-5.4.5-6.7 2c-1.2 1.3-3.1 2-5.4 2-2.4 0-4.2.7-5.4 2-1.2 1.4-2.9 2-6.1 2-3.5 0-4.5.4-4.9 2-.4 1.5-1.4 2-4.1 2-2.2 0-3.8.6-4.4 1.6-.5 1-2.8 1.8-5.7 2.2-3.5.3-4.9 1-5.2 2.3-.4 1.4-1.5 1.9-4.3 1.9-2.9 0-3.9.4-4.3 2-.4 1.5-1.4 2-4 2s-3.6.5-4 2c-.4 1.5-1.4 2-3.9 2-2.1 0-4 .7-5.1 2-.9 1.1-2.6 2-3.8 2-1.1 0-3.2.9-4.6 2-1.4 1.1-3.3 2-4.2 2-.9 0-2.2.9-2.9 2-.7 1.2-2.3 2-4.1 2-2 0-3 .6-3.4 2-.4 1.5-1.4 2-4.1 2-2.9 0-3.6.4-3.6 2s-.7 2-3.6 2c-2.7 0-3.7.5-4.1 2-.3 1.1-1.2 2-2 2s-2.6.9-4 2-3.4 2-4.3 2c-1 0-2 .9-2.3 2-.4 1.5-1.4 2-3.7 2-2.3 0-3.3.5-3.7 2-.3 1.1-1.3 2-2.3 2-1 0-2 .9-2.3 2-.4 1.5-1.4 2-3.7 2-2.3 0-3.3.5-3.7 2-.3 1.1-1.3 2-2.3 2-1 0-2 .9-2.3 2-.3 1.3-1.4 2-3.1 2-1.5 0-3.1.8-3.8 2-.7 1.1-2.1 2-3 2-1.1 0-1.8.8-1.8 2s-.7 2-1.8 2c-.9 0-2.3.9-3 2-.7 1.2-2.3 2-3.8 2-1.7 0-2.8.7-3.1 2-.3 1.1-1.4 2-2.4 2-1.2 0-1.9.7-1.9 2 0 1.2-.7 2-1.8 2-1 0-2.5.9-3.5 2-.9 1.1-2.6 2-3.8 2-1.2 0-2.3.8-2.6 2-.3 1.1-1.4 2-2.4 2-1.2 0-1.9.7-1.9 2s-.7 2-1.9 2c-1 0-2.1.9-2.4 2-.3 1.1-1.2 2-2.1 2-.9 0-1.6.7-1.6 1.5 0 .9-.8 1.8-1.7 2.2-1.8.6-14.3 11-17.3 14.3-.8.9-2.3 1.9-3.2 2.3-1 .3-1.8 1.3-1.8 2.2 0 .8-.7 1.5-1.6 1.5-.9 0-1.8.9-2.1 2-.3 1.1-1.4 2-2.4 2-1.2 0-1.9.7-1.9 2s-.7 2-2 2-2 .7-2 2-.7 2-2 2-2 .7-2 2c0 1.2-.7 2-1.6 2-.9 0-1.8.9-2.1 2-.3 1.1-1.2 2-2 2s-1.7.9-2 2c-.3 1.1-.9 2-1.4 2-.5 0-2 1.7-3.3 3.7-1.3 2.1-4.4 6-7 8.7-2.5 2.6-4.6 5.4-4.6 6.2 0 .8-.9 1.4-2 1.4-1.3 0-2 .7-2 2s-.7 2-2 2-2 .7-2 2c0 1.1-.5 2-1.1 2-.5 0-1.7 1.6-2.5 3.5-.8 2-2.1 3.8-2.8 4.1-.8.3-1.6 1.4-1.9 2.5-.3 1-1.2 1.9-2.1 1.9-.9 0-1.6.8-1.6 1.9 0 1-.9 2.1-2 2.4-1.2.3-2 1.4-2 2.6 0 1.2-.9 2.9-2 3.8-1.1 1-2 2.5-2 3.5 0 1.1-.8 1.8-2 1.8-1.1 0-2 .7-2 1.5s-.9 2.4-2 3.5-2 2.9-2 4.1c0 1.2-.8 2.3-2 2.6-1.1.3-2 1.4-2 2.3 0 1-.9 2.2-2 2.5-1.4.5-2 1.5-2 3.7 0 2.1-.6 3.1-2 3.5-1.1.3-2 1.2-2 1.9 0 .8-.9 2.3-2 3.4s-2 3.1-2 4.5c0 1.8-.5 2.5-2 2.5-1.6 0-2 .7-2 3 0 1.9-.7 3.4-2 4.2-1.1.7-2 2-2 2.8 0 .9-.9 2.3-2 3.3-1.1.9-2 2.6-2 3.7 0 1-.9 2.4-2 3-1.4.8-2 2.1-2 4.5 0 2.8-.4 3.5-2 3.5-1.7 0-2 .7-2 4s-.3 4-2 4c-1.6 0-2 .7-2 3.6 0 2.7-.5 3.7-2 4.1-1.5.4-2 1.4-2 4s-.5 3.6-2 4c-1.6.4-2 1.4-2 4.4 0 3.2-.3 3.9-2 3.9-1.6 0-2 .7-2 3.5 0 2.2-.8 4.3-2 5.5-1.1 1.1-2 3.1-2 4.4 0 1.3-.9 3.5-2 4.9-1.1 1.4-2 3.9-2 5.7 0 2.3-.5 3.3-2 3.7-1.5.4-2 1.4-2 3.9 0 2.1-.8 4.2-2 5.4-1.4 1.4-2 3.3-2 6.5s-.4 4.5-1.4 4.5c-1.8 0-2.6 2.2-2.6 7.2 0 3.1-.4 4.1-2 4.5-1.7.5-2 1.4-2 6.4 0 4.4-.4 5.9-1.4 5.9-1.9 0-2.6 2.2-2.6 8.1 0 3.7-.5 5.3-2 6.6-1.5 1.3-2 3-2 7s-.5 5.8-2 7.3c-1.6 1.6-2 3.3-2 8.1 0 4.6-.5 6.7-2 8.6-1.6 2.1-2 4.1-2 10.1s-.4 7.7-1.7 8.8c-1.5 1-1.9 3.2-2.1 12-.3 8.8-.8 11.3-2.3 13.3-1.7 2.1-1.9 4.1-1.9 15.8 0 10.9-.3 14-1.7 16.6-1.6 2.9-1.8 7.3-1.8 50.7 0 40.3.2 47.9 1.5 50 1.1 1.8 1.6 6.9 2 18.6.4 13.6.8 16.5 2.3 18.1 1.3 1.6 1.7 3.8 1.7 11.1s.4 10 2 12.9c1.5 2.8 2 5.7 2 11.3 0 6.3.3 7.8 2 9.3 1.6 1.4 2 2.9 2 8.3 0 5.1.5 7.2 2 9.1 1.5 1.9 2 4.1 2 8.4 0 4.4.4 5.9 1.4 5.9 1.8 0 2.6 2.2 2.6 7.2 0 2.5.8 4.9 2 6.5 1.3 1.7 2 4.1 2 6.9 0 3.2.6 4.9 2 6.1 1.3 1.1 2 3 2 5.1 0 1.9.9 4.5 2 5.9 1.1 1.4 2 4.1 2 5.9 0 2.1.8 4.2 2 5.4 1.3 1.3 2 3.3 2 6.1 0 3.2.4 4.2 2 4.6 1.5.4 2 1.4 2 3.9 0 2.1.8 4.2 2 5.4 1.2 1.2 2 3.3 2 5.5 0 2.4.6 3.9 2 4.7 1.4.9 2 2.4 2 5 0 3.1.4 3.8 2 3.8 1.7 0 2 .7 2 4s.3 4 2 4 2 .7 2 4 .3 4 2 4 2 .7 2 4 .3 4 2 4 2 .7 2 4 .3 4 2 4 2 .7 2 4 .3 4 2 4c1.6 0 2 .7 2 3.6 0 2.7.5 3.7 2 4.1 1.1.3 2 1.3 2 2.2 0 .9.9 2.7 2 4.1 1.1 1.4 2 3.3 2 4.2 0 1.1.8 1.8 2 1.8 1.6 0 2 .7 2 3.6 0 2.7.5 3.7 2 4.1 1.1.3 2 1.3 2 2.3 0 1 .9 2 2 2.3 1.5.4 2 1.4 2 4.1 0 2.9.4 3.6 2 3.6 1.3 0 2 .7 2 1.8s.9 2.7 2 3.7 2 2.7 2 3.7c0 1.1.9 2.2 2 2.5 1.1.3 2 1.3 2 2.3 0 1 .9 2 2 2.3 1.2.3 2 1.4 2 2.6 0 1.2.9 2.9 2 3.8 1.1 1 2 2.5 2 3.5 0 1.1.8 1.8 2 1.8 1.3 0 2 .7 2 1.9 0 1 .9 2.1 2 2.4 1.5.4 2 1.4 2 3.7 0 2.3.5 3.3 2 3.7 1.1.3 2 1.4 2 2.4 0 1.2.7 1.9 2 1.9s2 .7 2 2c0 1.1.7 2 1.5 2s2.2 1.5 3 3.2c3.2 6.7 4.6 8.8 6.1 8.8.7 0 1.4.9 1.4 2 0 1.3.7 2 2 2s2 .7 2 2 .7 2 2 2 2 .7 2 2 .7 2 2 2 2 .7 2 2 .7 2 2 2 2 .7 2 1.9c0 1 .9 2.1 2 2.4 1.1.3 2 1.2 2 2.1 0 .9.7 1.6 1.5 1.6.9 0 1.8.7 2.2 1.6.7 2 5.1 6.4 6.3 6.4.5 0 1.1.9 1.5 1.9.3 1 1.5 2.1 2.5 2.4 1.1.3 2 1.2 2 2s.9 1.7 2 2c1.1.3 2 1.2 2 2.1 0 .9.7 1.6 1.6 1.6.9 0 1.8.9 2.1 2 .3 1.1 1.2 2 2 2s1.7.9 2 2c.3 1.1 1.4 2 2.4 2 1.2 0 1.9.7 1.9 2s.7 2 2 2 2 .7 2 2 .7 2 2 2 2 .7 2 2 .7 2 2 2 2 .7 2 2c0 1.2.7 2 1.6 2 1.4 0 4.7 2.2 9.5 6.3.8.7 2.3 1.6 3.2 2 .9.3 1.7 1.3 1.7 2.2 0 .8.9 1.5 2 1.5 1.3 0 2 .7 2 2s.7 2 1.9 2c1 0 2.1.9 2.4 2 .3 1.2 1.4 2 2.6 2 1.2 0 2.9.9 3.8 2 1 1.1 2.5 2 3.5 2 1.1 0 1.8.8 1.8 2 0 1.3.7 2 1.9 2 1 0 2.1.9 2.4 2 .3 1.1 1.4 2 2.5 2 1 0 2.7.9 3.7 2s2.6 2 3.7 2 1.8.7 1.8 2c0 1.4.7 2 2.3 2 1.3 0 3.2.9 4.2 2s2.6 2 3.7 2 1.8.7 1.8 2c0 1.5.7 2 2.5 2 1.4 0 3.3.9 4.2 2 1 1.1 2.5 2 3.4 2 .9 0 1.9.9 2.2 2 .4 1.5 1.4 2 4.1 2 2.9 0 3.6.4 3.6 2 0 1.3.7 2 1.9 2 1 0 3 .9 4.4 2 1.4 1.1 3.1 2 3.9 2 .7 0 1.9.9 2.6 2 .7 1.2 2.3 2 4.1 2 2 0 3 .6 3.4 2 .4 1.5 1.4 2 4.1 2 2.9 0 3.6.4 3.6 2 0 1.7.7 2 3.9 2 3 0 4 .4 4.4 2 .4 1.5 1.4 2 4 2s3.6.5 4 2c.4 1.5 1.4 2 3.9 2 2.1 0 4 .7 5.1 2 1 1.2 2.9 2 4.7 2 1.8 0 3.7.8 4.7 2 1.2 1.3 3 2 5.5 2 3.1 0 3.8.4 3.8 2s.7 2 3.8 2c2.5 0 4.3.7 5.5 2 1.2 1.4 2.9 2 6.1 2 3.5 0 4.5.4 4.9 2 .4 1.6 1.4 2 4.5 2 5 0 7.2.8 7.2 2.6 0 1 1.5 1.4 5.6 1.4 4.7 0 5.7.3 6.1 2 .5 1.7 1.4 2 5.9 2 4.1 0 5.9.5 7.4 2s3.3 2 7 2 5.5.5 7 2c1.6 1.6 3.3 2 8 2s6.4.4 8 2c1.6 1.6 3.3 2 8.5 2 4.7 0 7.3.5 9.7 2 2.5 1.5 5.1 2 10.9 2 6.1 0 8.1.4 10.2 2 2.2 1.7 4 2 13.9 2 9.6 0 11.8.3 14.3 2 2.6 1.7 4.7 2 17 2 10.2 0 16.3.6 22.5 2 7.5 1.7 12.4 2 40 2 28 0 32.4-.2 39.5-2 6.2-1.5 11.5-2 23-2 13.2 0 15.4-.2 18.3-2 2.7-1.7 5-2 13.7-2 8.9 0 10.5-.3 11.4-1.8.8-1.4 2.7-1.8 10.3-2.1 6.8-.2 10-.8 11.8-2.1 1.7-1.2 5-1.9 9.8-2.2 5.6-.3 7.6-.8 8.3-2.1.8-1.3 2.3-1.7 6.3-1.7 3.8 0 6.1-.6 7.9-2 1.8-1.5 4-2 8.1-2s5.6-.4 5.6-1.4c0-1.6 3-2.6 8-2.6 2.3 0 4.2-.7 5.3-2 1.2-1.4 2.9-2 6.1-2 3.5 0 4.5-.4 4.9-2 .4-1.6 1.4-2 5.1-2 3.5 0 4.9-.5 5.8-2 .9-1.4 2.4-2 4.8-2s3.9-.6 4.8-2c.8-1.4 2.3-2 4.7-2 2.2 0 4.3-.8 5.5-2 1.1-1.1 3.3-2 5.1-2 2.2 0 3.2-.5 3.6-2 .4-1.6 1.4-2 4.4-2 3.2 0 3.9-.3 3.9-2s.7-2 3.9-2c3 0 4-.4 4.4-2 .4-1.5 1.4-2 4-2s3.6-.5 4-2c.4-1.5 1.4-2 4-2s3.6-.5 4-2c.4-1.5 1.4-2 4.1-2 2.9 0 3.6-.4 3.6-2s.7-2 3.6-2c2.7 0 3.7-.5 4.1-2 .3-1.3 1.4-2 2.9-2 1.3 0 3.2-.9 4.1-2 1-1.1 2.5-2 3.4-2 .9 0 1.9-.9 2.2-2 .3-1.3 1.4-2 3.1-2 1.5 0 3.1-.8 3.8-2 .7-1.1 2-2 2.9-2 .9 0 1.9-.9 2.2-2 .4-1.5 1.4-2 4.1-2 2.9 0 3.6-.4 3.6-2 0-1.3.7-2 1.9-2 1 0 2.1-.9 2.4-2 .4-1.5 1.4-2 3.7-2 2.3 0 3.3-.5 3.7-2 .3-1.1 1.3-2 2.3-2 1 0 2-.9 2.3-2 .3-1.2 1.4-2 2.6-2 1.2 0 2.9-.9 3.8-2 1-1.1 2.5-2 3.5-2 1.1 0 1.8-.8 1.8-2s.7-2 1.8-2c.9 0 2.3-.9 3-2 .7-1.1 1.8-2 2.6-2 .7 0 2-.7 2.7-1.6.7-.9 2.3-2 3.6-2.5 1.3-.5 2.3-1.5 2.3-2.4 0-.8.9-1.5 2-1.5 1.3 0 2-.7 2-2s.7-2 2-2c1.1 0 2-.7 2-1.5s1.5-2.2 3.3-3c6.6-3.2 8.7-4.6 8.7-6.1 0-.7.7-1.4 1.6-1.4.9 0 1.8-.9 2.1-2 .3-1.1 1.4-2 2.4-2 1.2 0 1.9-.7 1.9-2s.7-2 2-2 2-.7 2-2 .7-2 2-2 2-.7 2-2 .7-2 2-2 2-.7 2-2 .7-2 2-2 2-.7 2-2 .7-2 2-2 2-.7 2-2 .7-2 2-2 2-.7 2-2 .7-2 2-2 2-.7 2-2 .7-2 2-2 2-.7 2-2 .7-2 2-2 2-.7 2-2 .7-2 2-2 2-.7 2-2 .7-2 2-2 2-.7 2-2 .7-2 2-2 2-.7 2-2c0-1.1.7-2 1.5-2 .9 0 1.9-.8 2.2-1.8.4-.9 1.5-2.3 2.5-3 1-.7 1.8-1.9 1.8-2.5 0-.7 1.8-3.2 4-5.6 2.2-2.4 4-5 4-5.7 0-.8.9-1.4 2-1.4 1.2 0 2-.7 2-1.8 0-.9.9-2.3 2-3 1.1-.7 2-1.8 2-2.6 0-.7.7-2 1.6-2.7.9-.7 2-2.3 2.5-3.6.5-1.3 1.5-2.3 2.4-2.3.8 0 1.5-.9 1.5-2 0-1.3.7-2 2-2 1.2 0 2-.7 2-1.8 0-.9.9-2.8 2-4.2 1.1-1.4 2-3.3 2-4.3s.8-1.7 2-1.7c1.3 0 2-.7 2-1.9 0-1 .9-2.1 2-2.4 1.5-.4 2-1.4 2-3.7 0-2.3.5-3.3 2-3.7 1.1-.3 2-1.3 2-2.3 0-1 .9-2 2-2.3 1.5-.4 2-1.4 2-4.1 0-2.9.4-3.6 2-3.6 1.3 0 2-.7 2-1.9 0-1 .9-3 2-4.4 1.1-1.4 2-3.2 2-4.1 0-.9.8-1.6 2-1.6 1.6 0 2-.7 2-3.6 0-2.7.5-3.7 2-4.1 1.1-.3 2-1.3 2-2.3 0-.9.9-2.9 2-4.3s2-3.1 2-3.9c0-.7.9-1.9 2-2.6 1.2-.7 2-2.3 2-4 0-1.6.8-3.2 2-4 1.2-.7 2-2.3 2-4.1 0-2 .6-3 2-3.4 1.5-.4 2-1.4 2-3.9 0-2.2.6-3.7 2-4.6 1.2-.7 2-2.3 2-4.1 0-2 .6-3 2-3.4 1.5-.4 2-1.4 2-4 0-1.9.9-4.5 2-6 1.1-1.4 2-3.9 2-5.7 0-2.3.5-3.3 2-3.7 1.5-.4 2-1.4 2-4.2 0-2.4.7-4.2 2-5.4 1.2-1 2-2.9 2-4.6 0-3.9.9-6.1 2.6-6.1 1 0 1.4-1.2 1.4-3.9 0-2.3.8-4.8 2-6.4 1.1-1.4 2-4 2-5.9 0-2.2.6-3.7 2-4.6 1.5-.9 2-2.3 2-6 0-3.5.5-5.2 2-6.5 1.5-1.3 2-2.9 2-6.7 0-3.8.5-5.4 2-6.7 1.6-1.4 2-3 2-7.5 0-4.3.4-5.8 1.4-5.8 2 0 2.6-2.3 2.6-9.2 0-4.5.5-6.6 2-8.5 1.6-2 2-4.1 2-9.4 0-5.7.4-7.2 2-8.6 1.7-1.5 2-3 2-9.5 0-5.9.5-8.7 2-11.5 1.7-3.1 2-5.7 2-15.2 0-9.7.3-11.6 1.8-12.7 1.5-1.1 1.8-4 2.3-25.6.4-14.6 1.2-25.7 1.9-27.8.6-1.9 1.4-11.7 1.7-21.8.5-16.9.4-18.4-1.3-20.3-1.7-1.9-1.9-4.3-2.2-24.8-.3-20.1-.6-23-2.3-25.9-1.5-2.7-1.9-5.3-1.9-13.9 0-8.9-.3-10.8-1.7-11.9-1.4-1-1.9-3.1-2.1-10.1-.3-6.7-.8-9.1-2-10.1-1.1-.8-1.7-3.2-1.9-8-.5-9-1.1-11.2-2.8-11.2-1.2 0-1.5-1.4-1.5-6.4 0-7.3-.6-9.6-2.6-9.6-1 0-1.4-1.5-1.4-5.5 0-4.2-.5-6-2-7.5-1.4-1.4-2-3.3-2-6.4 0-2.8-.7-5.2-2-6.9-1.1-1.4-2-4-2-6 0-1.9-.9-4.5-2-6-1.1-1.4-2-3.9-2-5.7 0-1.8-.9-4.3-2-5.7-1.2-1.5-2-4.1-2-6.3 0-2.9-.4-3.9-2-4.3-1.6-.4-2-1.4-2-4.6 0-2.9-.6-4.6-2-5.8-1.2-1.1-2-3-2-5 0-2.2-.6-3.6-2-4.3-1.4-.8-2-2.1-2-4.5 0-2.8-.4-3.5-2-3.5-1.7 0-2-.7-2-3.9 0-3-.4-4-2-4.4-1.5-.4-2-1.4-2-4s-.5-3.6-2-4c-1.5-.4-2-1.4-2-4s-.5-3.6-2-4c-1.5-.4-2-1.4-2-4s-.5-3.6-2-4c-1.5-.4-2-1.4-2-4.1 0-2.9-.4-3.6-2-3.6s-2-.7-2-3.6c0-2.7-.5-3.7-2-4.1-1.1-.3-2-1.3-2-2.3 0-.9-.9-2.9-2-4.3s-2-3.2-2-4c0-.8-.9-1.7-2-2-1.5-.4-2-1.4-2-4.1 0-2.9-.4-3.6-2-3.6-1.2 0-2-.7-2-1.8 0-1-.9-2.5-2-3.5-1.1-.9-2-2.8-2-4.2 0-1.8-.5-2.5-2-2.5-1.3 0-2-.7-2-1.8s-.9-2.7-2-3.7-2-2.9-2-4.2c0-1.6-.6-2.3-2-2.3-1.3 0-2-.7-2-2 0-1.1-.5-2-1.1-2-.5 0-1.7-1.6-2.5-3.5-.8-2-2.1-3.8-2.9-4.2-.8-.3-1.5-1.4-1.5-2.4 0-1.2-.7-1.9-2-1.9-1.2 0-2-.7-2-1.8 0-.9-.9-2.3-2-3-1.1-.7-2-2.1-2-3.2s-.9-2.5-2-3.2c-1.1-.7-2-2.1-2-3 0-1.1-.8-1.8-2-1.8-1.3 0-2-.7-2-2 0-1.1-.7-2-1.5-2-.9 0-1.8-.8-2.2-1.8-.3-.9-1.2-2.4-2-3.2-3-3.4-6-7.6-6.6-9.3-.3-.9-1.3-1.7-2.2-1.7-.8 0-1.5-.9-1.5-2 0-1.3-.7-2-2-2s-2-.7-2-2-.7-2-2-2-2-.7-2-2-.7-2-2-2-2-.7-2-2-.7-2-2-2-2-.7-2-2-.7-2-2-2-2-.7-2-2-.7-2-2-2-2-.7-2-2-.7-2-2-2-2-.7-2-2c0-1.2-.7-2-1.6-2-.9 0-1.8-.9-2.1-2-.3-1.1-1.4-2-2.4-2-1.2 0-1.9-.7-1.9-2s-.7-2-2-2-2-.7-2-2-.7-2-2-2-2-.7-2-2-.7-2-2-2-2-.7-2-2-.7-2-2-2c-1.1 0-2-.7-2-1.5 0-.9-1.1-2-2.5-2.5s-2.5-1.4-2.5-1.9-.8-1.2-1.7-1.5c-1-.3-3.8-2.4-6.2-4.6-2.4-2.2-5-4-5.7-4-.8 0-1.4-.9-1.4-2 0-1.3-.7-2-1.9-2-1 0-2.1-.9-2.4-2-.3-1.2-1.4-2-2.6-2-1.1 0-2.8-.8-3.8-1.8-1-1.1-2.6-2.2-3.5-2.5-1-.4-1.8-1.3-1.8-2.2 0-.8-.9-1.5-2-1.5-1.3 0-2-.7-2-2 0-1.2-.7-2-1.8-2-1 0-2.5-.9-3.5-2-.9-1.1-2.8-2-4.2-2-1.8 0-2.5-.5-2.5-2 0-1.2-.7-2-1.8-2-.9 0-2.3-.9-3-2-.7-1.2-2.3-2-3.8-2-1.7 0-2.8-.7-3.1-2-.3-1.1-1.3-2-2.3-2-1 0-2-.9-2.3-2-.4-1.5-1.4-2-3.7-2-2.3 0-3.3-.5-3.7-2-.3-1.1-1.3-2-2.2-2-.9 0-2.2-.9-2.9-2-.8-1.3-2.3-2-4.2-2-2.3 0-3-.4-3-2s-.7-2-3-2c-1.9 0-3.4-.7-4.2-2-.7-1.1-2-2-2.8-2-.9 0-2.3-.9-3.3-2-.9-1.1-2.8-2-4.1-2-1.5 0-2.6-.7-2.9-2-.4-1.5-1.4-2-4-2s-3.6-.5-4-2c-.4-1.5-1.4-2-4.1-2-2.9 0-3.6-.4-3.6-2 0-1.7-.7-2-4-2s-4-.3-4-2-.7-2-4-2-4-.3-4-2-.7-2-3.9-2c-3 0-4-.4-4.4-2-.4-1.5-1.4-2-3.7-2-1.8 0-4.3-.9-5.7-2-1.5-1.1-4.1-2-6-2-2.6 0-3.6-.5-4-2-.4-1.5-1.4-2-3.9-2-2.1 0-4.2-.8-5.4-2-1.3-1.3-3.3-2-6.1-2-3.2 0-4.2-.4-4.6-2-.4-1.7-1.4-2-5.4-2-3.8 0-5.2-.4-6.1-2-1-1.5-2.4-2-5.5-2-3 0-4.9-.6-6.3-2-1.5-1.5-3.3-2-7-2-3.9 0-5.2-.4-6-2-.9-1.6-2.1-2-6.3-2-4 0-5.7-.5-7-2-1.3-1.6-2.9-2-7.8-2-4.7 0-6.5-.4-7.5-1.7-.9-1.4-3.3-1.9-9.7-2.3-6-.4-8.9-1.1-10.1-2.3-1.4-1.3-3.6-1.7-10.1-1.7-7 0-8.6-.3-9.4-1.7-.8-1.5-3-1.9-14.1-2.3-10.1-.4-13.3-.8-14-2-.8-1.2-5.3-1.6-25.7-2.1-14.2-.4-26.3-1.2-28.3-1.8-4.5-1.5-31.9-2.3-38.5-1.1zm43.5 53.1c2.5.6 12.2 1.4 21.5 1.8 13.2.5 17.7 1.1 20 2.4 2.3 1.3 5.5 1.7 13.1 1.7 8.6 0 10.5.3 12.7 2 2 1.6 4 2 10.6 2 6.8 0 8.4.3 10.1 2 1.6 1.6 3.3 2 8.8 2 5.5 0 7.1.4 8.5 2 1.3 1.5 2.9 2 7.1 2 6.4 0 8.6.7 8.6 2.6 0 1 1.5 1.4 5.5 1.4 4.2 0 6 .5 7.5 2 1.3 1.3 3.3 2 6.1 2 2.6 0 5 .7 6.6 2 1.5 1.2 4.1 2 6.2 2 2.4 0 4.2.7 5.4 2 1.2 1.4 2.9 2 5.8 2 3.2 0 4.2.4 4.6 2 .4 1.5 1.4 2 4.2 2 2.4 0 4.2.7 5.4 2 1.1 1.3 2.9 2 5.2 2 2.4 0 3.9.6 4.7 2 .9 1.4 2.4 2 5 2 3.1 0 3.8.4 3.8 2 0 1.7.7 2 3.9 2 3 0 4 .4 4.4 2 .4 1.5 1.4 2 4 2s3.6.5 4 2c.4 1.5 1.4 2 4 2s3.6.5 4 2c.4 1.5 1.4 2 4.1 2 2.9 0 3.6.4 3.6 2 0 1.7.7 2 4 2s4 .3 4 2c0 1.6.7 2 3 2 1.9 0 3.4.7 4.2 2 .7 1.1 2 2 2.8 2 .9 0 2.3.9 3.3 2 .9 1.1 2.8 2 4.1 2 1.5 0 2.6.7 2.9 2 .4 1.5 1.4 2 3.7 2 2.3 0 3.3.5 3.7 2 .3 1.1 1.3 2 2.3 2 1 0 2 .9 2.3 2 .4 1.5 1.4 2 3.7 2 2.3 0 3.3.5 3.7 2 .3 1.1 1.3 2 2.3 2 1 0 2 .9 2.3 2 .3 1.2 1.4 2 2.6 2 1.2 0 2.9.9 3.8 2 1 1.1 2.5 2 3.5 2 1.1 0 1.8.8 1.8 2 0 1.3.7 2 1.9 2 1 0 2.1.9 2.4 2 .3 1.1 1.4 2 2.5 2 1 0 2.7.9 3.7 2s2.6 2 3.7 2 1.8.7 1.8 2 .7 2 2 2c1.1 0 2 .7 2 1.6 0 .8 1.3 2 2.9 2.5 1.6.6 3.2 1.7 3.5 2.5.3.8 1.2 1.4 2 1.4s2.1.8 2.8 1.8c.7 1 2.1 2.1 3.1 2.5.9.3 1.7 1.3 1.7 2.2 0 .8.9 1.5 2 1.5 1.3 0 2 .7 2 2s.7 2 2 2 2 .7 2 2 .7 2 2 2 2 .7 2 2 .7 2 1.9 2c1 0 2.1.9 2.4 2 .3 1.1 1.2 2 2 2s1.7.9 2 2c.3 1.1 1.2 2 2 2s1.7.9 2 2c.3 1.1 1.2 2 2 2s1.7.9 2 2c.3 1.1 1.2 2 2 2s1.7.9 2 2c.3 1.1 1.2 2 2 2s1.7.9 2 2c.3 1.1 1.2 2 2 2s1.7.9 2 2c.3 1.1 1.2 2 2.1 2 .9 0 1.6.8 1.6 2 0 1.3.7 2 1.9 2 1 0 2.1.9 2.4 2 .3 1.1 1.2 2 2.1 2 .9 0 1.6.8 1.6 2 0 1.3.7 2 2 2s2 .7 2 2c0 1.1.7 2 1.5 2 .9 0 1.9.8 2.2 1.7.4 1 2.2 3.4 4 5.3 1.9 1.9 3.7 4.7 4 6.2.4 1.9 1.2 2.8 2.4 2.8s1.9.7 1.9 2c0 1.1.7 2 1.5 2 .9 0 1.8.8 2.2 1.7.3 1 1.4 2.6 2.5 3.6 1 1 1.8 2.7 1.8 3.8 0 1.2.8 2.3 2 2.6 1.1.3 2 1.4 2 2.4 0 1.2.7 1.9 2 1.9 1.2 0 2 .7 2 1.6 0 .9.9 2.7 2 4.1 1.1 1.4 2 3.4 2 4.4 0 1.2.7 1.9 2 1.9 1.2 0 2 .7 2 1.8 0 .9.9 2.3 2 3 1.3.8 2 2.3 2 4.2 0 2.3.4 3 2 3 1.5 0 2 .7 2 2.5 0 1.4.9 3.3 2 4.2 1.1 1 2 2.5 2 3.4 0 .9.9 1.9 2 2.2 1.5.4 2 1.4 2 3.7 0 2.3.5 3.3 2 3.7 1.4.4 2 1.4 2 3.4 0 1.8.8 3.4 2 4.1 1.1.7 2 2 2 2.9 0 .9.9 2.8 2 4.2 1.1 1.4 2 3 2 3.6 0 .6.9 2 2 3.1s2 3 2 4.3c0 1.2.9 3 2 4 1.1.9 2 2.7 2 4 0 1.3.9 3.2 2 4.2s2 2.8 2 4c0 1.2.9 3.4 2 4.8s2 3.9 2 5.7c0 2.3.5 3.3 2 3.7 1.6.4 2 1.4 2 4.3s.4 3.9 2 4.3c1.6.4 2 1.4 2 4.6 0 2.9.6 4.6 2 5.8 1.3 1.1 2 3 2 5.3 0 2.4.6 3.9 2 4.8 1.6.9 2 2.3 2 6.2 0 3.6.4 5 1.4 5 1.8 0 2.6 2.2 2.6 7.2 0 2.5.8 4.9 2 6.5 1.3 1.7 2 4.1 2 6.9 0 3.1.6 5 2 6.4 1.5 1.5 2 3.4 2 7.2 0 3.7.6 6.1 2 7.8 1.5 1.9 2 4.1 2 8.7 0 4.8.4 6.7 1.9 8.2 1.5 1.5 2 3.7 2.2 11 .3 6.8.8 9.4 1.9 10.1 1.1.7 1.6 3.8 2 13.4.4 10 .8 12.8 2.3 14.4 1.7 1.8 1.7 5.5 1.5 60.3-.3 53.4-.4 58.7-2 61.4-1.4 2.4-1.8 5.4-1.8 14.5 0 9.6-.3 12.2-2 15.3-1.5 2.8-2 5.6-2 12.1 0 6.8-.4 8.8-2 10.9-1.5 1.9-2 4-2 9s-.4 6.9-2 8.7c-1.5 1.8-2 3.7-2 8.6 0 5.3-.3 6.5-2 7.4-1.7.9-2 2.1-2 7 0 4.8-.4 6.4-2 7.7-1.4 1.2-2 3-2 6s-.6 4.9-2 6.3c-1.3 1.3-2 3.3-2 6s-.7 4.7-2 6c-1.2 1.2-2 3.3-2 5.4 0 1.8-.9 4.5-2 5.9-1.1 1.4-2 4-2 6 0 2.6-.5 3.6-2 4-1.5.4-2 1.4-2 3.6 0 1.8-.9 4-2 5.1-1.1 1.1-2 3.3-2 4.9 0 3.9-.9 6.1-2.6 6.1-1 0-1.4 1.2-1.4 4 0 3.3-.3 4-2 4s-2 .7-2 4-.3 4-2 4-2 .7-2 4-.3 4-2 4c-1.6 0-2 .7-2 3.6 0 2.7-.5 3.7-2 4.1-1.5.4-2 1.4-2 4s-.5 3.6-2 4c-1.4.4-2 1.4-2 3.4 0 1.8-.8 3.4-2 4.1-1.1.7-2 2-2 2.8 0 .8-.9 2.1-2 2.8-1.3.8-2 2.3-2 4.2 0 2.3-.4 3-2 3-1.4 0-2 .7-2 2.3 0 1.3-.9 3.2-2 4.2s-2 2.6-2 3.7-.7 1.8-2 1.8c-1.6 0-2 .7-2 3.6 0 2.7-.5 3.7-2 4.1-1.1.3-2 1.3-2 2.3 0 1-.9 2-2 2.3-1.5.4-2 1.4-2 3.7 0 2.3-.5 3.3-2 3.7-1.1.3-2 1.4-2 2.4 0 1.2-.7 1.9-2 1.9-1.2 0-2 .7-2 1.8 0 1-.9 2.5-2 3.5-1.1.9-2 2.6-2 3.8 0 1.2-.8 2.3-2 2.6-1.1.3-2 1.4-2 2.4 0 1.2-.7 1.9-2 1.9s-2 .7-2 2c0 1.1-.7 2-1.5 2-.9 0-1.8.8-2.2 1.7-.3 1-1.4 2.6-2.5 3.6-1 1-1.8 2.7-1.8 3.8 0 1.2-.8 2.3-2 2.6-1.1.3-2 1.4-2 2.4 0 1.2-.7 1.9-2 1.9s-2 .7-2 2-.7 2-2 2-2 .7-2 2-.7 2-2 2c-1.1 0-2 .7-2 1.5 0 1.7-27.6 29.8-30.2 30.8-1 .4-1.8 1.3-1.8 2.1 0 .7-.9 1.6-2 1.9-1.1.3-2 1.2-2 2.1 0 .9-.8 1.6-2 1.6-1.3 0-2 .7-2 2s-.7 2-2 2-2 .7-2 2-.7 2-2 2-2 .7-2 2-.7 2-2 2c-1.1 0-2 .7-2 1.5 0 .9-1.1 2-2.5 2.5s-2.5 1.4-2.5 1.9-1.4 1.4-3 2c-1.7.5-3.3 1.7-3.6 2.6-.3.8-1.5 1.5-2.5 1.5-1.2 0-1.9.7-1.9 2s-.7 2-2 2c-1.1 0-2 .7-2 1.5 0 .9-.8 1.9-1.7 2.2-1 .4-2.9 1.5-4.2 2.5-1.3 1-3.2 1.8-4.2 1.8-1.2 0-1.9.7-1.9 2s-.7 2-1.9 2c-1 0-2.1.9-2.4 2-.3 1.3-1.4 2-3.1 2-1.5 0-3.1.8-3.8 2-.7 1.1-2 2-2.9 2-.9 0-1.9.9-2.2 2-.3 1.1-1.4 2-2.5 2-1 0-2.7.9-3.7 2s-2.6 2-3.5 2c-1 0-2 .9-2.3 2-.4 1.5-1.4 2-3.7 2-2.3 0-3.3.5-3.7 2-.3 1.1-1.3 2-2.2 2-.9 0-2.4.9-3.4 2-.9 1.1-2.8 2-4.1 2-1.5 0-2.6.7-2.9 2-.4 1.5-1.4 2-4.1 2-2.9 0-3.6.4-3.6 2s-.7 2-3.6 2c-2.7 0-3.7.5-4.1 2-.4 1.5-1.4 2-4 2s-3.6.5-4 2c-.3 1.3-1.4 2-2.9 2-1.3 0-3.3.9-4.4 2-1.1 1.1-3.3 2-5.1 2-2.2 0-3.2.5-3.6 2-.4 1.5-1.4 2-4 2s-3.6.5-4 2c-.4 1.5-1.4 2-4.2 2-2.4 0-4.2.7-5.4 2-1 1.2-2.9 2-4.6 2-3.9 0-6.1.9-6.1 2.6 0 1-1.2 1.4-3.8 1.4-2.6 0-4.5.7-5.7 2-1.2 1.4-3.1 2-5.9 2-3 0-4.4.5-5.4 2-.9 1.5-2.3 2-5.8 2-3.1 0-5.4.7-7.1 2-1.5 1.2-4.1 2-6.3 2s-4.8.8-6.3 2c-1.8 1.4-4 2-7.7 2-3.8 0-5.6.5-6.5 1.7-1 1.3-3.4 1.9-9.5 2.4-6.1.4-8.6 1-9.5 2.2-.9 1.3-2.9 1.7-8.5 1.7-5.7 0-7.7.4-9.7 2-2.2 1.7-4.1 2-12 2-7.7 0-10 .4-12.1 1.9-2.4 1.7-5.1 1.9-22.7 2.3-16.9.3-20.5.7-23.4 2.2-3.1 1.6-5.8 1.7-31 1.4-22.1-.4-28.6-.8-32.6-2.1-3.7-1.2-8.8-1.7-19-1.7-11.7-.1-14.6-.4-18-2-3.2-1.5-6.2-1.9-14.6-2-9.1 0-10.9-.3-12.9-2-1.9-1.6-3.7-2-10.2-2-6.6 0-8.1-.3-9.5-2-1.4-1.6-3-2-8.7-2-5.3 0-7.2-.4-8.1-1.7-.9-1.3-3.2-1.8-8.4-2.1-4.9-.3-7.1-.8-7.1-1.7 0-1.7-2.3-2.5-7.2-2.5-2.5 0-4.9-.8-6.5-2-1.5-1.2-4.1-2-6.3-2s-4.8-.8-6.3-2c-1.4-1.1-3.9-2-5.7-2-1.8 0-4.3-.9-5.7-2-1.5-1.2-4.1-2-6.3-2-2.9 0-3.9-.4-4.3-2-.4-1.5-1.4-2-4-2-2 0-4.4-.8-5.7-2-1.3-1.2-3.7-2-5.7-2-2.6 0-3.6-.5-4-2-.4-1.6-1.4-2-4.4-2-3.2 0-3.9-.3-3.9-2 0-1.6-.7-2-3.8-2-2.6 0-4.1-.6-5-2-.7-1.1-2.3-2-3.7-2-1.4 0-3.4-.9-4.5-2s-3.1-2-4.3-2c-1.3 0-3.2-.9-4.2-2s-2.9-2-4.2-2c-1.6 0-2.3-.6-2.3-2 0-1.6-.7-2-3.6-2-2.7 0-3.7-.5-4.1-2-.4-1.4-1.4-2-3.4-2-1.8 0-3.4-.8-4.1-2-.7-1.1-2.1-2-3-2-1 0-1.8-.6-1.8-1.4 0-1.5-2.1-2.6-5.2-2.6-1.1 0-2.2-.8-2.5-2-.3-1.1-1.3-2-2.2-2-.9 0-2.2-.9-2.9-2-.8-1.3-2.3-2-4.2-2-2.3 0-3-.4-3-2 0-1.2-.7-2-1.8-2-.9 0-2.3-.9-3-2-.7-1.2-2.3-2-3.8-2-1.7 0-2.8-.7-3.1-2-.3-1.1-1.3-2-2.3-2-1 0-2-.9-2.3-2-.3-1.1-1.4-2-2.5-2-1 0-2.7-.9-3.7-2s-2.6-2-3.7-2-1.8-.7-1.8-2-.7-2-2-2c-1.1 0-2-.7-2-1.5 0-.9-1.1-2-2.5-2.5s-2.5-1.4-2.5-1.9-1.4-1.4-3-2c-1.7-.5-3.3-1.7-3.6-2.6-.3-.8-1.5-1.5-2.5-1.5-1.2 0-1.9-.7-1.9-2s-.7-2-2-2-2-.7-2-2-.7-2-2-2c-1.2 0-2-.7-2-1.6 0-.9-.9-1.8-2-2.1-1.1-.3-2-1.2-2-2s-.9-1.7-2-2c-1.1-.3-2-1.2-2-1.9 0-.8-.8-1.8-1.7-2.1-1.8-.7-14.5-11.5-16.7-14.2-.9-1.1-5.7-6.2-19.2-20.7-1.2-1.2-2.4-2.9-2.7-3.8-.4-.9-1.3-1.6-2.2-1.6-.8 0-1.5-.9-1.5-2 0-1.3-.7-2-2-2s-2-.7-2-2-.7-2-2-2-2-.7-2-2c0-1.1-.6-2-1.4-2-.8 0-2.2-1.4-3-3-.9-1.7-2.3-4.4-3.2-6-.8-1.7-2.2-3-3-3-.8 0-1.4-.9-1.4-2 0-1.3-.7-2-2-2-1.2 0-2-.7-2-1.8 0-1-.9-2.5-2-3.5-1.1-.9-2-2.6-2-3.8 0-1.2-.8-2.3-2-2.6-1.1-.3-2-1.4-2-2.4 0-1.2-.7-1.9-2-1.9s-2-.7-2-1.9c0-1-.9-3-2-4.4-1.1-1.4-2-3.2-2-4.1 0-.9-.8-1.6-2-1.6s-2-.7-2-1.6c0-.9-.9-2.7-2-4.1-1.1-1.4-2-3.4-2-4.4 0-1.2-.7-1.9-2-1.9-1.4 0-2-.7-2-2.3 0-1.3-.9-3.2-2-4.2s-2-2.6-2-3.5c0-1-.9-2-2-2.3-1.5-.4-2-1.4-2-4.1 0-2.9-.4-3.6-2-3.6s-2-.7-2-3.6c0-2.7-.5-3.7-2-4.1-1.2-.3-2-1.4-2-2.8 0-1.2-.9-3-2-4s-2-2.6-2-3.5c0-1-.9-2.9-2-4.3s-2-3-2-3.7c0-.7-.9-2.3-2-3.7-1.1-1.4-2-3.6-2-4.9 0-1.4-.9-3.2-2-4.1-1.1-1-2-2.7-2-3.9 0-3.3-1-5.4-2.6-5.4-1 0-1.4-1.2-1.4-4 0-3.3-.3-4-2-4-1.6 0-2-.7-2-3.6 0-2.1-.8-4.7-2-6.1-1.1-1.5-2-4.1-2-6 0-2.6-.5-3.6-2-4-1.6-.4-2-1.4-2-4.3 0-2.2-.8-4.8-2-6.3-1.1-1.4-2-3.9-2-5.6 0-1.8-.9-4-2-5.1-1.4-1.4-2-3.3-2-6.4 0-2.8-.7-5.2-2-6.9-1.3-1.6-2-4-2-6.6 0-2.8-.7-4.8-2-6.1-1.5-1.5-2-3.3-2-7.1 0-3.6-.6-5.8-2-7.6-1.6-2-2-4.1-2-9.4 0-5.4-.4-7.2-1.9-8.6-1.5-1.4-2-3.6-2.2-10.5-.3-6.7-.8-9-2.1-10s-1.7-3.4-2-11.4c-.2-7.7-.7-10.6-1.9-12-1.4-1.6-1.8-4.9-2.1-19.4-.3-12.9-.8-18.2-1.8-20-1.2-2-1.6-8.6-1.8-32.6-.3-26.4-.2-31 1.4-36.5 1.1-4.2 1.9-11.9 2.3-22.5.5-13.4.9-16.3 2.4-17.8 1.4-1.4 1.7-3.6 1.7-11.9 0-9 .2-10.5 2-12 1.7-1.4 2-2.9 2-10 0-7 .3-8.5 2-10 1.6-1.4 2-2.9 2-8.6 0-6 .2-6.9 2-7.4 1.7-.4 2-1.4 2-6.6 0-4.9.4-6.5 2-7.8 1.6-1.4 2-3 2-7.4 0-4.8.3-5.7 2-6.2 1.7-.4 2-1.4 2-6.1 0-4.1.4-5.6 1.4-5.6 1.8 0 2.6-2.2 2.6-7.2 0-3.1.4-4.1 2-4.5 1.6-.4 2-1.4 2-4.3 0-2.2.8-4.8 2-6.3 1.1-1.4 2-4 2-6 0-2.6.5-3.6 2-4 1.5-.4 2-1.4 2-4s.5-3.6 2-4c1.5-.4 2-1.4 2-4 0-1.9.9-4.5 2-6 1.1-1.4 2-3.2 2-4 0-.8.9-2.6 2-4s2-3.7 2-5.1c0-1.5.8-3.1 2-3.8 1.1-.7 2-2.3 2-3.6 0-1.2.9-3 2-3.9 1.1-1 2-2.4 2-3.3 0-.9.9-2.3 2-3.3 1.1-.9 2-2.8 2-4.1 0-1.5.7-2.6 2-2.9 1.5-.4 2-1.4 2-4.1 0-2.9.4-3.6 2-3.6 1.5 0 2-.7 2-2.5 0-1.4.9-3.3 2-4.2 1.1-1 2-2.5 2-3.4 0-.9.9-1.9 2-2.2 1.5-.4 2-1.4 2-3.7 0-2.3.5-3.3 2-3.7 1.1-.3 2-1.3 2-2.3 0-1 .9-2 2-2.3 1.5-.4 2-1.4 2-3.7 0-2.3.5-3.3 2-3.7 1.1-.3 2-1.3 2-2.3 0-1 .9-2 2-2.3 1.2-.3 2-1.4 2-2.5 0-3.1 1.1-5.2 2.6-5.2.8 0 1.4-.9 1.4-2 0-1.3.7-2 2-2 1.2 0 2-.7 2-1.8 0-.9.9-2.3 2-3 1.1-.7 2-2.1 2-3.2s.9-2.5 2-3.2c1.1-.7 2-2.1 2-3 0-1.1.8-1.8 2-1.8 1.3 0 2-.7 2-2s.7-2 2-2c1.2 0 2-.7 2-1.8 0-.9.9-2.3 2-3 1.1-.7 2-1.9 2-2.6 0-.8 1.7-3.3 3.9-5.5 2.1-2.2 4.1-4.7 4.4-5.6.4-.8 1.3-1.5 2.2-1.5.8 0 1.5-.9 1.5-2 0-1.3.7-2 2-2s2-.7 2-2 .7-2 2-2 2-.7 2-2 .7-2 2-2 2-.7 2-2 .7-2 2-2 2-.7 2-2 .7-2 2-2 2-.7 2-2 .7-2 2-2 2-.7 2-2 .7-2 2-2 2-.7 2-2 .7-2 2-2c1.2 0 2-.7 2-1.6 0-.9.9-1.8 2-2.1 1.1-.3 2-1.2 2-1.9 0-.8 1-1.8 2.3-2.3 1.3-.5 2.9-1.6 3.6-2.5.7-.9 1.9-1.6 2.7-1.6.7 0 1.9-.8 2.6-1.8.7-1 2.1-2.1 3.1-2.5.9-.3 1.7-1.3 1.7-2.2 0-.8.9-1.5 2-1.5 1.3 0 2-.7 2-2s.7-2 2-2c1.1 0 2-.7 2-1.5 0-.9 1-1.9 2.3-2.4 1.3-.5 2.9-1.6 3.6-2.5.7-.9 2.2-1.6 3.3-1.6 1.1 0 2.2-.9 2.5-2 .3-1.1 1.4-2 2.4-2 1.2 0 1.9-.7 1.9-2s.7-2 1.9-2c1 0 2.1-.7 2.4-1.5.4-.8 2.2-2.1 4.2-2.9 1.9-.8 3.5-2 3.5-2.5 0-.6.8-1.1 1.9-1.1 1 0 2.1-.9 2.4-2 .4-1.5 1.4-2 3.7-2 2.3 0 3.3-.5 3.7-2 .3-1.1 1.3-2 2.2-2 .9 0 2.2-.9 2.9-2 .7-1.2 2.3-2 3.8-2 1.7 0 2.8-.7 3.1-2 .3-1.2 1.4-2 2.8-2 1.2 0 3-.9 4-2s2.6-2 3.5-2c1 0 2-.9 2.3-2 .4-1.5 1.4-2 3.7-2 2.3 0 3.3-.5 3.7-2 .3-1.2 1.4-2 2.8-2 1.2 0 3-.9 4-2s2.8-2 4-2c1.2 0 3-.9 4-2s2.5-2 3.4-2c.9 0 2.4-.9 3.4-2 .9-1.1 2.7-2 3.9-2 1.3 0 2.9-.9 3.6-2 .7-1.2 2.3-2 3.8-2 1.4 0 3.7-.9 5.1-2 1.4-1.1 3.6-2 4.9-2 1.3 0 3.3-.9 4.4-2 1.1-1.1 3.3-2 5.1-2 2.2 0 3.2-.5 3.6-2 .4-1.5 1.4-2 4.2-2 2.4 0 4.2-.7 5.4-2 1.2-1.4 2.9-2 5.8-2 3.2 0 4.2-.4 4.6-2 .4-1.6 1.4-2 4.9-2 3.2 0 4.9-.6 6.1-2 1.1-1.3 3-2 5.1-2 1.9 0 4.5-.9 5.9-2 1.5-1.1 4.1-2 6-2 2 0 4.6-.9 6-2 1.8-1.4 4.1-2 7.9-2 4.2 0 5.5-.4 6.3-1.9.8-1.5 2.5-2 7.7-2.3 4.9-.3 6.9-.9 7.6-2.1.7-1.4 2.4-1.7 8.3-1.7 6.3 0 7.6-.3 8.4-1.9.9-1.6 2.5-2 10.1-2.2 6.5-.3 9.3-.8 10-1.8.6-1.1 3.9-1.6 11.7-2.1 7.4-.4 11.8-1.1 14-2.3 2.6-1.4 5.9-1.7 18-1.7 8.1 0 16.5-.5 18.6-1.1 10.4-2.8 46.4-3.4 56.7-.8z"/><path d="M2060 1058.5c0 1.4-.9 3.4-2 4.5-1.2 1.2-2 3.3-2 5.3 0 2.1-.8 4.1-2 5.2-1.4 1.3-2 3.1-2 6 0 3.4-.4 4.4-2 4.8-1.6.4-2 1.4-2 4.6 0 2.8-.7 4.8-2 6.1a8 8 0 0 0-2 5 8 8 0 0 1-2 5c-1.3 1.3-2 3.3-2 6.1 0 3.2-.4 4.2-2 4.6-1.5.4-2 1.4-2 4 0 2-.9 4.6-2 6-1.1 1.4-2 4.1-2 5.9 0 2.3-.6 3.7-2 4.4-1.5.8-2 2.1-2 5 0 2.8-.6 4.6-2 5.7-1.3 1.2-2 3-2 5.4 0 2.8-.5 3.8-2 4.2-1.7.4-2 1.4-2 5.7 0 4.3-.3 5.3-2 5.7-1.5.4-2 1.4-2 4 0 2-.9 4.6-2 6-1.1 1.5-2 4.1-2 6 0 2.6-.5 3.6-2 4-1.6.4-2 1.4-2 4.9 0 3.2-.6 4.9-2 6.1-1.3 1.1-2 3-2 5.1 0 1.9-.9 4.5-2 5.9-1.1 1.5-2 4.1-2 6 0 2.6-.5 3.6-2 4-1.6.4-2 1.4-2 4.3 0 2.2-.8 4.8-2 6.3-1.1 1.4-2 3.9-2 5.7 0 2.3-.5 3.3-2 3.7-1.5.4-2 1.4-2 4.2 0 2-.9 4.7-2 6.1-1.1 1.4-2 4.1-2 6.2 0 2.6-.5 3.8-1.4 3.8-1.7 0-2.6 2.2-2.6 6s-.9 6-2.6 6c-1 0-1.4 1.2-1.4 3.8 0 2.5-.7 4.3-2 5.5-1.4 1.2-2 2.9-2 6.1 0 3.5-.4 4.5-2 4.9-1.6.4-2 1.4-2 4.6 0 2.8-.7 4.8-2 6.1a8 8 0 0 0-2 5 8 8 0 0 1-2 5c-1.1 1.1-2 3.3-2 4.9 0 3.9-.9 6.1-2.6 6.1-.9 0-1.4 1.2-1.4 3.6 0 2.1-.8 4.7-2 6.1-1.2 1.5-2 4.1-2 6.3 0 2.9-.4 3.9-2 4.3-1.6.4-2 1.4-2 4.6 0 2.8-.7 4.8-2 6.1a8 8 0 0 0-2 5 8 8 0 0 1-2 5c-1.3 1.3-2 3.3-2 6.1 0 3.2-.4 4.2-2 4.6-1.5.4-2 1.4-2 4.2 0 2.4-.7 4.2-2 5.4-1.4 1.1-2 2.9-2 5.7 0 2.9-.5 4.2-2 5-1.5.8-2 2.1-2 5 0 2.8-.6 4.6-2 5.7-1.3 1.1-2 3-2 5.3s-.7 4.2-2 5.3c-1.3 1.1-2 2.9-2 5.2 0 2.4-.6 3.9-2 4.7-1.4.9-2 2.4-2 4.6 0 1.9-.9 4.5-2 5.9-1.2 1.5-2 4.1-2 6.3 0 2.9-.4 3.9-2 4.3-1.6.4-2 1.4-2 4.5 0 2.6-.6 4.5-2 5.7-1.3 1.2-2 3.1-2 5.4 0 2.5-.6 4-2 4.9-1.5.9-2 2.3-2 5.8 0 3.7-.4 4.7-2 5.1-1.5.4-2 1.4-2 4.2 0 2.4-.7 4.2-2 5.4-1.4 1.2-2 2.9-2 6.1 0 3.5-.4 4.5-2 4.9-1.6.4-2 1.4-2 5.1 0 3.5-.5 4.9-2 5.8-1.4.9-2 2.4-2 4.9 0 2.3-.7 4.2-2 5.4-1.3 1.2-2 3.1-2 5.6 0 2.8-.5 4.1-2 4.9-1.4.7-2 2.1-2 4.4 0 1.8-.9 4.5-2 5.9-1.1 1.4-2 3.9-2 5.6 0 1.8-.9 4-2 5.1-1.3 1.3-2 3.3-2 6.1 0 3.2-.4 4.2-2 4.6-1.6.4-2 1.4-2 4.3 0 2.2-.8 4.8-2 6.3-1.1 1.4-2 4-2 5.9 0 2.2-.6 3.7-2 4.6-1.5.9-2 2.3-2 5.8 0 3.7-.4 4.7-2 5.1-1.5.4-2 1.4-2 4.2 0 2.4-.7 4.2-2 5.4-1.4 1.1-2 2.9-2 5.7 0 2.9-.5 4.2-2 5-1.5.8-2 2.1-2 5 0 2.8-.6 4.6-2 5.7-1.3 1.2-2 3-2 5.4 0 2.8-.5 3.8-2 4.2-1.6.4-2 1.4-2 4.6 0 2.8-.7 4.8-2 6.1-1.2 1.2-2 3.3-2 5.3s-.8 3.9-2 5c-1.4 1.2-2 2.9-2 6.1 0 3.5-.4 4.5-2 4.9-1.5.4-2 1.4-2 3.7 0 1.8-.9 4.3-2 5.7-1.2 1.6-2 4.1-2 6.4 0 2.7-.4 3.9-1.4 3.9-1.7 0-2.6 2.2-2.6 6s-.9 6-2.6 6c-.9 0-1.4 1.2-1.4 3.6 0 2.1-.8 4.7-2 6.1-1.1 1.4-2 4.1-2 5.9 0 2.3-.6 3.7-2 4.4-1.5.8-2 2.1-2 4.9 0 2.5-.7 4.4-2 5.6-1.2 1.1-2 3.1-2 5.2 0 2-.8 4.1-2 5.3-1.2 1.2-2 3.3-2 5.5 0 2.4-.6 3.9-2 4.7-1.4.9-2 2.4-2 4.6 0 1.9-.9 4.5-2 5.9-1.2 1.5-2 4.1-2 6.3 0 2.9-.4 3.9-2 4.3-1.6.4-2 1.4-2 4.6 0 2.8-.7 4.8-2 6.1-1.2 1.2-2 3.3-2 5.3 0 2.1-.8 4.1-2 5.2-1.4 1.2-2 3.1-2 5.7 0 3.1-.4 4.1-2 4.5-1.5.4-2 1.4-2 4 0 2-.9 4.6-2 6-1.2 1.5-2 4.1-2 6.3 0 2.9-.4 3.9-2 4.3-1.7.4-2 1.4-2 5.7 0 4.3-.3 5.3-2 5.7-1.6.4-2 1.4-2 4.3 0 2.2-.8 4.8-2 6.3-1.1 1.4-2 3.9-2 5.6 0 1.8-.9 4-2 5.1-1.1 1.1-2 3.3-2 4.9 0 3.9-.9 6.1-2.6 6.1-1 0-1.4 1.2-1.4 3.9 0 3-.4 4-2 4.4-1.5.4-2 1.4-2 4.1 0 2.9.4 3.6 2 3.6 1.3 0 2-.7 2-2s.7-2 2-2 2-.7 2-2c0-1.6.7-2 3-2 1.9 0 3.4-.7 4.2-2 .7-1.1 2.1-2 3-2 1.1 0 1.8-.8 1.8-2 0-1.3.7-2 1.9-2 1 0 2.1-.9 2.4-2 .4-1.5 1.4-2 3.7-2 2.3 0 3.3-.5 3.7-2 .3-1.1 1.3-2 2.3-2 1 0 2-.9 2.3-2 .4-1.5 1.4-2 3.7-2 2.3 0 3.3-.5 3.7-2 .3-1.1 1.3-2 2.3-2 1 0 2-.9 2.3-2 .4-1.5 1.4-2 3.7-2 2.3 0 3.3-.5 3.7-2 .3-1.1 1.3-2 2.2-2 .9 0 2.2-.9 2.9-2 .8-1.3 2.3-2 4.2-2 2.3 0 3-.4 3-2 0-1.5.7-2 2.5-2 1.4 0 3.3-.9 4.2-2 1-1.1 2.5-2 3.4-2 .9 0 1.9-.9 2.2-2 .4-1.5 1.4-2 4.1-2 2.9 0 3.6-.4 3.6-2s.7-2 3.6-2c2.7 0 3.7-.5 4.1-2 .3-1.3 1.4-2 2.9-2 1.3 0 3.2-.9 4.1-2 1-1.1 2.5-2 3.4-2 .9 0 2.8-.9 4.2-2 1.4-1.1 3.9-2 5.7-2 2.3 0 3.3-.5 3.7-2 .4-1.5 1.4-2 4-2s3.6-.5 4-2c.4-1.6 1.4-2 4.3-2s3.9-.4 4.3-2c.4-1.5 1.4-2 3.7-2 1.8 0 4.3-.9 5.7-2 1.5-1.2 4.1-2 6.3-2 2.9 0 3.9-.4 4.3-2 .4-1.6 1.4-2 4.6-2 2.8 0 4.8-.7 6.1-2 1.5-1.5 3.3-2 7-2 3.9 0 5.2-.4 6-2 .9-1.6 2.1-2 6.1-2 3.6 0 5.8-.6 7.6-2 1.9-1.5 4.1-2 8.4-2 4.4 0 5.9-.4 5.9-1.4 0-2 2.3-2.6 10.4-2.6 5.9 0 7.7-.4 9.6-2 2-1.7 3.7-2 12.9-2 8.9 0 11.1-.3 13.6-2 2.6-1.8 4.7-2 17.5-2 10.8 0 16.1-.4 20.5-1.7 8.3-2.4 52.2-2.6 55-.3 1.4 1.1 5.5 1.6 16.7 2 11.3.4 15.1.8 15.7 1.9.7 1 4.2 1.6 12.1 2.1 9 .5 11.4.9 12.2 2.3.7 1.3 2.4 1.7 7.8 1.7 5.9 0 7.1.3 8 2 .9 1.7 2.1 2 7 2 4.7 0 6.4.4 8 2 1.5 1.5 3.3 2 7.4 2 4.5 0 5.4.3 5.9 2 .4 1.7 1.4 2 5.6 2 3.8 0 5.6.5 7.1 2 1.4 1.4 3.3 2 6.3 2 3.1 0 4.5.5 5.5 2 .9 1.5 2.3 2 5.8 2 3.7 0 4.7.4 5.1 2 .4 1.5 1.4 2 4.2 2 2.4 0 4.2.7 5.4 2 1.2 1.4 2.9 2 5.8 2 3.2 0 4.2.4 4.6 2 .4 1.5 1.4 2 4 2s3.6.5 4 2c.4 1.6 1.4 2 4.3 2s3.9.4 4.3 2c.4 1.5 1.4 2 4.1 2 2.9 0 3.6.4 3.6 2s.7 2 3.6 2c2.7 0 3.7.5 4.1 2 .4 1.4 1.4 2 3.4 2 1.8 0 3.4.8 4.1 2 .7 1.1 1.9 2 2.6 2 .8 0 2.5.9 3.9 2s3.4 2 4.3 2c1 0 2 .9 2.3 2 .4 1.5 1.4 2 3.7 2 2.3 0 3.3.5 3.7 2 .3 1.1 1.2 2 2 2s2.6.9 4 2 3.4 2 4.4 2c1.2 0 1.9.7 1.9 2s.7 2 1.9 2c1 0 3 .9 4.4 2 1.4 1.1 3.2 2 4.1 2 .9 0 1.6.8 1.6 2s.7 2 1.6 2c.9 0 2.7.9 4.1 2 1.4 1.1 3.4 2 4.4 2 1.2 0 1.9.7 1.9 2s.7 2 2 2c1.1 0 2 .7 2 1.4 0 1.5 2.1 2.9 8.8 6.1 1.7.8 3.2 2.2 3.2 3 0 .8.9 1.5 2 1.5 1.3 0 2 .7 2 2s.7 2 2 2 2 .7 2 2 .7 2 2 2c1.7 0 2-.7 2-4s-.3-4-2-4-2-.7-2-3.9c0-2.3-.8-4.8-2-6.4-1.1-1.4-2-4-2-6 0-2.6-.5-3.6-2-4-1.7-.4-2-1.4-2-5.7 0-4.3-.3-5.3-2-5.7-1.6-.4-2-1.4-2-4.3 0-2.2-.8-4.8-2-6.3-1.1-1.4-2-3.9-2-5.6 0-1.8-.9-4-2-5.1-1.3-1.3-2-3.3-2-6.1 0-3.2-.4-4.2-2-4.6-1.6-.4-2-1.4-2-4.3 0-2.2-.8-4.8-2-6.3-1.1-1.4-2-4-2-5.9 0-2.1-.7-4-2-5.1-1.2-1-2-2.9-2-4.6 0-3.9-.9-6.1-2.6-6.1-.9 0-1.4-1.2-1.4-3.6 0-2.1-.8-4.7-2-6.1-1.2-1.5-2-4.1-2-6.3 0-2.9-.4-3.9-2-4.3-1.6-.4-2-1.4-2-5.1 0-3.5-.5-4.9-2-5.8-1.4-.9-2-2.4-2-4.6 0-1.9-.9-4.5-2-5.9-1.1-1.4-2-4.1-2-5.9 0-2.1-.8-4.2-2-5.4-1.3-1.3-2-3.3-2-6.1 0-3.2-.4-4.2-2-4.6-1.6-.4-2-1.4-2-4.9 0-3.2-.6-4.9-2-6.1-1.3-1.1-2-3-2-5.3s-.7-4.2-2-5.3c-1.4-1.2-2-2.9-2-6.1 0-3.5-.4-4.5-2-4.9-1.6-.4-2-1.4-2-4.6 0-2.9-.6-4.6-2-5.8-1.3-1.1-2-3-2-5.3s-.7-4.2-2-5.3c-1.4-1.2-2-2.9-2-6.1 0-3.5-.4-4.5-2-4.9-1.6-.4-2-1.4-2-4.6 0-2.9-.6-4.6-2-5.8-1.3-1.1-2-3-2-5.3s-.7-4.2-2-5.3c-1.4-1.2-2-2.9-2-6.1 0-3.5-.4-4.5-2-4.9-1.5-.4-2-1.4-2-4 0-1.9-.9-4.5-2-6-1.1-1.4-2-4-2-5.9 0-2.2-.6-3.7-2-4.6-1.5-.9-2-2.3-2-5.7 0-3.4-.5-4.7-2-5.5-1.5-.8-2-2.1-2-5 0-2.7-.7-4.7-2-6-1.2-1.2-2-3.3-2-5.3s-.8-3.9-2-5c-1.4-1.2-2-2.9-2-6.1 0-3.5-.4-4.5-2-4.9-1.6-.4-2-1.4-2-4.6 0-2.9-.6-4.6-2-5.8-1.2-1.1-2-3-2-5s-.8-4.1-2-5.3c-1.3-1.3-2-3.3-2-6.1 0-3.2-.4-4.2-2-4.6-1.5-.4-2-1.4-2-4 0-2-.9-4.6-2-6-1.1-1.4-2-4.1-2-5.9 0-2.1-.8-4.2-2-5.4-1.3-1.3-2-3.3-2-6.1 0-3.2-.4-4.2-2-4.6-1.6-.4-2-1.4-2-4.8 0-2.9-.6-4.7-2-6-1.3-1.2-2-3.1-2-5.4 0-2.5-.6-4-2-4.9-1.4-.8-2-2.3-2-4.6 0-4.4-.9-6.6-2.6-6.6-1 0-1.4-1.3-1.4-4.3 0-3.1-.6-4.9-2-6.2-1.3-1.2-2-3.1-2-5.5 0-2.9-.5-3.9-2-4.3-1.7-.4-2-1.4-2-5.6 0-4-.4-5.2-2-6.1-1.3-.7-2-2.1-2-4.1 0-1.7-.9-4.2-2-5.6-1.2-1.5-2-4.1-2-6.2 0-2.5-.6-4-2-4.9-1.5-.9-2-2.3-2-5.8 0-3.7-.4-4.7-2-5.1-1.5-.4-2-1.4-2-4 0-2-.9-4.6-2-6-1.2-1.5-2-4.1-2-6.2 0-2.5-.6-4-2-4.9-1.5-.9-2-2.3-2-5.7 0-3.4-.5-4.7-2-5.5-1.3-.7-2-2.1-2-4.1 0-1.7-.9-4.2-2-5.6-1.2-1.5-2-4.1-2-6.3 0-2.9-.4-3.9-2-4.3-1.6-.4-2-1.4-2-4.5 0-5-.8-7.2-2.6-7.2-1 0-1.4-1.2-1.4-3.9 0-2.3-.8-4.8-2-6.4-1.1-1.4-2-4-2-5.9 0-2.2-.6-3.7-2-4.6-1.4-.8-2-2.3-2-4.6 0-4.4-.9-6.6-2.6-6.6-1 0-1.4-1.2-1.4-3.9 0-2.3-.8-4.8-2-6.4-1.1-1.4-2-4-2-6 0-2.6-.5-3.6-2-4-1.6-.4-2-1.4-2-4.5 0-5-.8-7.2-2.6-7.2-1 0-1.4-1.2-1.4-3.8 0-2.5-.7-4.3-2-5.5-1.4-1.1-2-2.9-2-5.7 0-2.9-.5-4.2-2-5-1.5-.8-2-2.1-2-5 0-2.8-.6-4.6-2-5.7-1.3-1.1-2-3-2-5.3s-.7-4.2-2-5.3c-1.5-1.2-2-2.9-2-6.2 0-3.8-.3-4.5-2-4.5s-2-.7-2-4.5c0-3.3-.5-5-2-6.2-1.3-1.1-2-3-2-5.3s-.7-4.2-2-5.3c-1.5-1.2-2-2.9-2-6.2 0-3.8-.3-4.5-2-4.5s-2-.7-2-3.9c0-2.3-.8-4.8-2-6.4-1.1-1.4-2-4-2-5.9 0-2.1-.7-4-2-5.1-1.4-1.2-2-2.9-2-5.8 0-3.2-.4-4.2-2-4.6-1.6-.4-2-1.4-2-4.3 0-2.2-.8-4.8-2-6.3-1.1-1.4-2-3.9-2-5.6 0-1.8-.9-4-2-5.1-1.3-1.3-2-3.3-2-6.1 0-3.2-.4-4.2-2-4.6-1.6-.4-2-1.4-2-4.8 0-2.9-.6-4.7-2-6-1.3-1.1-2-3.1-2-5.2 0-2-.9-4.6-2-6-1.1-1.5-2-4.1-2-6 0-2.6-.5-3.6-2-4-1.6-.4-2-1.4-2-4.9 0-3.1-.6-5-2-6.4-1.2-1.2-2-3.3-2-5.3 0-2.1-.8-4.1-2-5.2-1.4-1.3-2-3.1-2-6.2 0-3.6-.3-4.3-2-4.3-1.5 0-2 .7-2 2.5zm-16.2 325.3c.2 143.4 0 160.2-1.3 160.2-.9 0-1.8.7-2.2 1.6-.8 2.1-4.6 5.9-6.7 6.7-.9.4-1.6 1.3-1.6 2.2 0 .8-.7 1.5-1.6 1.5-.9 0-1.8.9-2.1 2-.3 1.1-1.2 2-2 2s-1.7.9-2 2c-.3 1.1-1.4 2-2.4 2-1.2 0-1.9.7-1.9 2s-.7 2-2 2-2 .7-2 2-.7 2-2 2-2 .7-2 2-.7 2-2 2-2 .7-2 2-.7 2-2 2-2 .7-2 2-.7 2-2 2-2 .7-2 2-.7 2-2 2-2 .7-2 2-.7 2-2 2-2 .7-2 2-.7 2-2 2-2 .7-2 2-.7 2-2 2-2 .7-2 2-.7 2-2 2-2 .7-2 2-.7 2-2 2-2 .7-2 2-.7 2-2 2-2 .7-2 2-.7 2-2 2c-1.2 0-2 .7-2 1.6 0 .9-.9 1.8-2 2.1-1.1.3-2 1.2-2 2s-.9 1.7-2 2c-1.1.3-2 1.2-2 2s-.9 1.7-2 2c-1.1.3-2 1.2-2 2s-.9 1.7-2 2c-1.1.3-2 1.2-2 1.9 0 .8-.7 1.7-1.5 2-.8.4-2.8 1.8-4.4 3.3-1.5 1.4-6.5 6-11 10.1s-13.5 12.7-20 19.1c-6.6 6.4-12.6 11.9-13.5 12.2-.9.4-1.6 1.3-1.6 2.1 0 .7-.9 1.6-2 1.9-1.1.3-2 1.2-2 2s-.9 1.7-2 2c-1.1.3-2 1.2-2 2s-.9 1.7-2 2c-1.1.3-2 1.2-2 2.1 0 .9-.8 1.6-2 1.6-1.3 0-2 .7-2 2s-.7 2-2 2-2 .7-2 2-.7 2-2 2-2 .7-2 2-.7 2-2 2-2 .7-2 2-.7 2-2 2-2 .7-2 2-.7 2-2 2-2 .7-2 2-.7 2-2 2-2 .7-2 2-.7 2-2 2-2 .7-2 2-.7 2-2 2-2 .7-2 2-.7 2-2 2c-1.7 0-2-.7-2-3.9 0-3 .4-4 2-4.4 1.6-.4 2-1.4 2-4.5 0-2.6.6-4.5 2-5.7 1.2-1.1 2-3.1 2-5.2 0-2 .8-4.1 2-5.3 1.3-1.3 2-3.3 2-6.1 0-3.2.4-4.2 2-4.6 1.6-.4 2-1.4 2-4.3 0-2.2.8-4.8 2-6.3 1.1-1.4 2-4 2-5.9 0-2.2.6-3.7 2-4.6 1.5-.9 2-2.3 2-5.8 0-3.7.4-4.7 2-5.1 1.5-.4 2-1.4 2-4 0-2 .9-4.6 2-6 1.1-1.4 2-4.1 2-5.9 0-2.3.6-3.7 2-4.4 1.5-.8 2-2.1 2-5 0-2.8.6-4.6 2-5.7 1.2-1.1 2-3 2-5s.8-4.1 2-5.3c1.3-1.3 2-3.3 2-6 0-2.9.5-4.2 2-5 1.4-.7 2-2.1 2-4.4 0-2 .8-4 2-5.1 1.4-1.3 2-3.1 2-6 0-3.4.4-4.4 2-4.8 1.6-.4 2-1.4 2-4.6 0-2.8.7-4.8 2-6.1 1.2-1.2 2-3.3 2-5.3s.8-3.9 2-5c1.4-1.2 2-2.9 2-5.8 0-3.2.4-4.2 2-4.6 1.6-.4 2-1.4 2-4.9 0-3.2.6-4.9 2-6.1 1.3-1.2 2-3 2-5.4 0-2.8.5-3.8 2-4.2 1.6-.4 2-1.4 2-4.6 0-2.9.6-4.6 2-5.8 1.3-1.1 2-3 2-5.3s.7-4.2 2-5.3c1.5-1.2 2-2.9 2-6.2 0-3.8.3-4.5 2-4.5s2-.7 2-4.5c0-3.3.5-5 2-6.2 1.3-1.1 2-3 2-5.3 0-2.4.6-3.9 2-4.8 1.5-.9 2-2.3 2-5.2 0-2.9.5-4.3 2-5.2 1.4-.9 2-2.4 2-4.9 0-2.3.7-4.2 2-5.4 1.4-1.2 2-3.1 2-5.7 0-3.1.4-4.1 2-4.5 1.6-.4 2-1.4 2-4.3 0-2.2.8-4.8 2-6.3 1.1-1.4 2-4 2-6 0-2.6.5-3.6 2-4 1.6-.4 2-1.4 2-4.5 0-2.6.6-4.5 2-5.7 1.3-1.2 2-3.1 2-5.4 0-2.5.6-4 2-4.9 1.5-.9 2-2.3 2-5.2 0-2.9.5-4.3 2-5.2 1.4-.9 2-2.4 2-4.9 0-2.3.7-4.2 2-5.4 1.4-1.3 2-3.1 2-6 0-3.4.4-4.4 2-4.8 1.6-.4 2-1.4 2-4.6 0-2.8.7-4.8 2-6.1 1.2-1.2 2-3.3 2-5.3s.8-3.9 2-5c1.4-1.2 2-2.9 2-5.8 0-3.2.4-4.2 2-4.6 1.5-.4 2-1.4 2-4 0-2 .9-4.6 2-6 1.2-1.6 2-4.1 2-6.4 0-2.7.4-3.9 1.4-3.9 1.8 0 2.6-2.2 2.6-7.2 0-3.1.4-4.1 2-4.5 1.6-.4 2-1.4 2-4.3 0-2.2.8-4.8 2-6.3 1.1-1.4 2-4 2-5.9 0-2.2.6-3.7 2-4.6 1.5-.9 2-2.3 2-5.8 0-3.7.4-4.7 2-5.1 1.6-.4 2-1.4 2-4.4 0-2.5.6-4.1 1.6-4.7 1.1-.6 1.8-2.7 2.2-6 .3-3.8.9-5.1 2.3-5.5 1.6-.4 1.9-1.5 1.9-5.7 0-4.3.3-5.3 2-5.7 1.5-.4 2-1.4 2-4 0-2 .9-4.6 2-6 1.1-1.5 2-4.1 2-6 0-2 .9-4.6 2-6 1.1-1.4 2-3.3 2-4.3 0-2 1-3.2 2.4-2.7.8.3 1.2 48.6 1.4 160.5zM1847 1734c0 .5-.5 1-1.1 1-.5 0-.7-.5-.4-1 .3-.6.8-1 1.1-1 .2 0 .4.4.4 1zm-454.3 643.7c-.4.3-.7 91-.7 201.5V2780l25.8-.2 25.7-.3.3-118.7c.2-107.7.1-118.8-1.4-120.3-2.3-2.2-1-4.5 2.6-4.5 2.5 0 3 .4 3 2.5 0 1.4.9 3.3 2 4.2 1.1 1 2 2.5 2 3.5 0 1.1.8 1.8 2 1.8 1.3 0 2 .7 2 1.9 0 1 .9 2.1 2 2.4 1.2.3 2 1.4 2 2.6 0 1.2.9 2.9 2 3.8 1.1 1 2 2.5 2 3.5 0 1.1.8 1.8 2 1.8 1.3 0 2 .7 2 1.9 0 1.1.5 2.3 1.1 2.7.6.3 1.7 2.2 2.5 4 .8 1.9 2.1 3.4 2.9 3.4.8 0 1.5.9 1.5 2s.7 2 1.5 2c.9 0 1.9.8 2.2 1.7.4 1 1.5 2.9 2.5 4.2 1 1.3 1.8 3.2 1.8 4.2 0 1.2.7 1.9 2 1.9s2 .7 2 1.9c0 1 .9 2.1 2 2.4 1.3.3 2 1.4 2 3.1 0 1.5.8 3.1 2 3.8 1.1.7 2 2.1 2 3 0 1.1.8 1.8 2 1.8s2 .7 2 1.8c0 1 .9 2.5 2 3.5 1.1.9 2 2.6 2 3.8 0 1.2.8 2.3 2 2.6 1.1.3 2 1.3 2 2.3 0 1 .9 2 2 2.3 1.3.3 2 1.4 2 3.1 0 1.5.8 3.1 2 3.8 1.1.7 2 2.1 2 3 0 1.1.8 1.8 2 1.8s2 .7 2 1.8c0 .9.9 2.3 2 3 1.2.7 2 2.3 2 3.8 0 1.7.7 2.8 2 3.1 1.1.3 2 1.4 2 2.4 0 1.1.7 1.9 1.5 1.9.9 0 1.9.8 2.2 1.7.4 1 1.5 2.9 2.5 4.2 1 1.3 1.8 3.2 1.8 4.2 0 1.2.7 1.9 2 1.9s2 .7 2 1.9c0 1 .9 2.1 2 2.4 1.3.3 2 1.4 2 3.1 0 1.5.8 3.1 2 3.8 1.1.7 2 2.1 2 3 0 1.1.8 1.8 2 1.8 1.3 0 2 .7 2 1.8s.9 2.7 2 3.7 2 2.7 2 3.7c0 1.1.9 2.2 2 2.5 1.1.3 2 1.3 2 2.3 0 1 .9 2 2 2.3 1.2.3 2 1.4 2 2.6 0 1.2.9 3 2 4.1 1.1 1.1 2 2.7 2 3.5 0 .8.9 1.5 2 1.5 1.3 0 2 .7 2 1.9 0 1 .9 2.1 2 2.4 1.5.4 2 1.4 2 3.7 0 2.3.5 3.3 2 3.7 1.1.3 2 1.4 2 2.4 0 1.2.7 1.9 2 1.9s2 .7 2 1.9c0 1 .8 2.9 1.8 4.2 1 1.3 2.1 3.2 2.5 4.1.4 1.3 1.7 1.8 4.2 1.8 2.8 0 3.5-.4 3.5-2 0-1.3.7-2 2-2s2-.7 2-1.8.9-2.7 2-3.7 2-2.7 2-3.7c0-1.1.9-2.2 2-2.5 1.1-.3 2-1.3 2-2.3 0-1 .9-2 2-2.3 1.1-.3 2-1.4 2-2.5 0-1 .9-2.7 2-3.7s2-2.6 2-3.7.7-1.8 2-1.8c1.2 0 2-.7 2-1.8 0-.9.9-2.3 2-3 1.2-.7 2-2.3 2-3.8 0-1.7.7-2.8 2-3.1 1.1-.3 2-1.4 2-2.4 0-1.2.7-1.9 2-1.9s2-.7 2-1.9c0-1 .8-2.9 1.8-4.2 1-1.3 2.1-3.2 2.5-4.2.3-.9 1.3-1.7 2.2-1.7.8 0 1.5-.8 1.5-1.9 0-1 .9-2.1 2-2.4 1.5-.4 2-1.4 2-3.7 0-2.3.5-3.3 2-3.7 1.1-.3 2-1.4 2-2.4 0-1.2.7-1.9 2-1.9 1.5 0 2-.7 2-2.5 0-1.4.9-3.3 2-4.2 1.1-1 2-2.5 2-3.5 0-1.1.8-1.8 2-1.8 1.3 0 2-.7 2-1.9 0-1 .9-2.1 2-2.4 1.2-.3 2-1.4 2-2.6 0-1.2.9-2.9 2-3.8 1.1-1 2-2.5 2-3.5 0-1.1.8-1.8 2-1.8s2-.7 2-1.8c0-.9.9-2.3 2-3 1.2-.7 2-2.3 2-3.8 0-1.7.7-2.8 2-3.1 1.1-.3 2-1.3 2-2.3 0-1 .9-2 2-2.3 1.2-.3 2-1.4 2-2.6 0-1.2.9-2.9 2-3.8 1.1-1 2-2.5 2-3.5 0-1.1.8-1.8 2-1.8 1.3 0 2-.7 2-1.9 0-1 .9-2.1 2-2.4 1.5-.4 2-1.4 2-3.7 0-2.3.5-3.3 2-3.7 1.1-.3 2-1.4 2-2.4 0-1.2.7-1.9 2-1.9s2-.7 2-1.9c0-1.1.5-2.3 1.1-2.7.6-.3 1.7-2.2 2.5-4 .8-1.9 2.1-3.4 2.9-3.4.8 0 1.5-.8 1.5-1.9 0-1 .9-2.1 2-2.4 1.2-.3 2-1.4 2-2.6 0-1.2.9-2.9 2-3.8 1.1-1 2-2.5 2-3.5 0-1.1.8-1.8 2-1.8 1.3 0 2-.7 2-1.8s.9-2.7 2-3.7 2-2.7 2-3.7c0-1.1.9-2.2 2-2.5 1.1-.3 2-1.4 2-2.4 0-1.2.7-1.9 2-1.9 1.2 0 2-.7 2-1.8 0-1 .9-2.5 2-3.5 1.1-.9 2-2.8 2-4.3 0-2.2.4-2.5 2.8-2.2 2.5.3 2.7.5 2.2 4.3-.3 2.2-.5 57.8-.5 123.5v119.5l25.8.3 25.7.2v-199.7c0-131.9-.4-200.3-1-201.3-.9-1.3-1.2-1.3-2.1.4-.6 1-2 2.7-3 3.7-1.1 1.1-1.9 2.6-1.9 3.4 0 .8-.7 1.5-1.5 1.5-.9 0-1.9.8-2.2 1.7-.4.9-1.5 2.5-2.5 3.5s-1.8 2.7-1.8 3.9c0 1.2-.8 2.3-2 2.6-1.1.3-2 1.3-2 2.3 0 1-.9 2-2 2.3-1.3.3-2 1.4-2 3.1 0 1.5-.8 3.1-2 3.8-1.1.7-2 2.1-2 3 0 1.1-.8 1.8-2 1.8s-2 .7-2 1.8c0 1-.9 2.5-2 3.5-1.1.9-2 2.6-2 3.8 0 1.2-.8 2.3-2 2.6-1.1.3-2 1.3-2 2.3 0 1-.9 2-2 2.3-1.5.4-2 1.4-2 3.7 0 2.3-.5 3.3-2 3.7-1.1.3-2 1.3-2 2.3 0 1-.9 2-2 2.3-1.2.3-2 1.4-2 2.6 0 1.2-.9 2.9-2 3.8-1.1 1-2 2.5-2 3.5 0 1.1-.8 1.8-2 1.8s-2 .7-2 1.8c0 1-.9 2.5-2 3.5-1.1.9-2 2.6-2 3.8 0 1.2-.8 2.3-2 2.6-1.1.3-2 1.3-2 2.3 0 1-.9 2-2 2.3-1.3.3-2 1.4-2 3.1 0 1.5-.8 3.1-2 3.8-1.1.7-2 2.1-2 3 0 1.1-.8 1.8-2 1.8s-2 .7-2 1.8c0 1-.9 2.5-2 3.5-1.1.9-2 2.8-2 4.2 0 1.8-.5 2.5-2 2.5-1.3 0-2 .7-2 1.9 0 1-.9 2.1-2 2.4-1.5.4-2 1.4-2 3.7 0 2.3-.5 3.3-2 3.7-1.1.3-2 1.4-2 2.4 0 1.2-.7 1.9-2 1.9s-2 .7-2 1.9c0 1.1-.5 2.3-1.1 2.7-.6.3-1.7 2.2-2.5 4-.8 1.9-2.1 3.4-2.9 3.4-.8 0-1.5.8-1.5 1.9 0 1-.9 2.1-2 2.4-1.5.4-2 1.4-2 3.7 0 2.3-.5 3.3-2 3.7-1.1.3-2 1.4-2 2.4 0 1.2-.7 1.9-2 1.9-1.2 0-2 .7-2 1.8 0 1-.9 2.5-2 3.5-1.1.9-2 2.6-2 3.8 0 1.2-.8 2.3-2 2.6-1.1.3-2 1.3-2 2.3 0 1-.9 2-2 2.3-1.2.3-2 1.4-2 2.5 0 3.1-1.1 5.2-2.6 5.2-.8 0-1.4.9-1.4 2 0 1.3-.7 2-2 2s-2 .7-2 1.9c0 1.1-.5 2.3-1.1 2.7-.6.3-1.7 2.2-2.5 4-.8 1.9-2.1 3.4-2.9 3.4-.8 0-1.5.8-1.5 1.9 0 1-.9 2.1-2 2.4-1.2.3-2 1.4-2 2.6 0 1.2-.9 2.9-2 3.8-1.1 1-2 2.5-2 3.5s-.7 1.8-1.5 1.8c-.9 0-1.9.8-2.2 1.7-.4 1-1.5 2.9-2.5 4.2-1 1.3-1.8 3.2-1.8 4.2 0 1.2-.7 1.9-2 1.9s-2 .7-2 1.9c0 1-.9 2.1-2 2.4-1.3.3-2 1.4-2 3.1 0 1.5-.8 3.1-2 3.8-1.1.7-2 2.1-2 3 0 1-.7 1.8-1.5 1.8s-2.1 1.5-2.9 3.4c-.8 1.8-1.9 3.7-2.5 4-.6.4-1.1 1.6-1.1 2.7 0 1.2-.7 1.9-2 1.9s-2 .7-2 1.9c0 1-.9 2.1-2 2.4-1.5.4-2 1.4-2 3.7 0 2.3-.5 3.3-2 3.7-1.1.3-2 1.4-2 2.4 0 1.1-.7 1.9-1.5 1.9-.9 0-2 1.1-2.5 2.5s-1.3 2.5-1.8 2.5c-1.5 0-6.2-5.6-6.2-7.3 0-1-.8-1.7-2-1.7s-2-.7-2-1.8c0-.9-.9-2.3-2-3-1.2-.7-2-2.3-2-3.8 0-1.7-.7-2.8-2-3.1-1.1-.3-2-1.4-2-2.4 0-1.1-.7-1.9-1.5-1.9s-2.1-1.5-2.9-3.4c-.8-1.8-1.9-3.7-2.5-4-.6-.4-1.1-1.6-1.1-2.7 0-1.2-.7-1.9-2-1.9s-2-.7-2-1.9c0-1-.9-2.1-2-2.4-1.5-.4-2-1.4-2-3.7 0-2.3-.5-3.3-2-3.7-1.1-.3-2-1.4-2-2.4 0-1.2-.7-1.9-2-1.9-1.2 0-2-.7-2-1.8 0-.9-.9-2.3-2-3-1.2-.7-2-2.3-2-3.8 0-1.7-.7-2.8-2-3.1-1.1-.3-2-1.3-2-2.3 0-1-.9-2-2-2.3-1.2-.3-2-1.4-2-2.6 0-1.2-.9-2.9-2-3.8-1.1-1-2-2.5-2-3.5 0-1.1-.8-1.8-2-1.8s-2-.7-2-1.8c0-1-.9-2.5-2-3.5-1.1-.9-2-2.6-2-3.8 0-1.2-.8-2.3-2-2.6-1.1-.3-2-1.3-2-2.3 0-1-.9-2-2-2.3-1.2-.3-2-1.4-2-2.6 0-1.2-.9-3-2-4.1-1.1-1.1-2-2.7-2-3.5 0-.8-.9-1.5-2-1.5-1.2 0-2-.7-2-1.8 0-1-.9-2.5-2-3.5-1.1-.9-2-2.8-2-4.2 0-1.8-.5-2.5-2-2.5-1.2 0-2-.7-2-1.8 0-.9-.9-2.3-2-3-1.2-.7-2-2.3-2-3.8 0-1.7-.7-2.8-2-3.1-1.1-.3-2-1.4-2-2.4 0-1.2-.7-1.9-2-1.9-1.5 0-2-.7-2-2.5 0-1.4-.9-3.4-2-4.5s-2-2.7-2-3.5c0-.8-.9-1.5-2-1.5-1.2 0-2-.7-2-1.8 0-1-.9-2.5-2-3.5-1.1-.9-2-2.6-2-3.8 0-1.2-.8-2.3-2-2.6-1.1-.3-2-1.3-2-2.2 0-.9-.9-2.2-2-2.9-1.2-.7-2-2.3-2-3.8 0-1.7-.7-2.8-2-3.1-1.1-.3-2-1.4-2-2.4 0-1.2-.7-1.9-2-1.9s-2-.7-2-1.9c0-1-.9-3-2-4.4-1.1-1.4-2-3.2-2-4.1 0-.9-.8-1.6-2-1.6s-2-.7-2-1.8c0-1-.9-2.5-2-3.5-1.1-.9-2-2.6-2-3.8 0-1.2-.8-2.3-2-2.6-1.1-.3-2-1.3-2-2.3 0-1-.9-2-2-2.3-1.2-.3-2-1.4-2-2.6 0-1.2-.9-3-2-4.1-1.1-1.1-2-2.7-2-3.5 0-.8-.7-1.5-1.5-1.5s-2.1-1.5-2.9-3.4c-.8-1.8-1.9-3.7-2.5-4-.6-.4-1.1-1.6-1.1-2.7 0-1.2-.7-1.9-2-1.9-1.2 0-2-.7-2-1.8 0-1-.9-2.5-2-3.5-1.1-.9-2-2.8-2-4.2 0-1.8-.5-2.5-2-2.5-1.3 0-2-.7-2-2s-.7-2-2-2c-1.6 0-2-.7-2-3.6 0-2.7-.5-3.7-2-4.1-1.1-.3-2-1.4-2-2.4 0-1.2-.7-1.9-2-1.9-1.4 0-2-.7-2-2.3 0-1.3-.9-3.2-2-4.2s-2-2.6-2-3.7-.7-1.8-2-1.8-2-.7-2-1.9c0-1-.7-2.5-1.6-3.2-.9-.7-2-2.3-2.5-3.6-.9-2.3-2-2.9-3.2-1.6zm1363.3.7c0 .9-.8 1.6-2 1.6-1.7 0-2 .7-2 3.9 0 3-.4 4-2 4.4-1.5.4-2 1.4-2 3.7 0 1.8-.9 4.3-2 5.7-1.1 1.5-2 4.1-2 6 0 2.6-.5 3.6-2 4-1.5.4-2 1.4-2 3.9 0 2.1-.8 4.2-2 5.4-1.1 1.1-2 3.1-2 4.4 0 1.3-.9 3.5-2 4.9-1.1 1.4-2 3.9-2 5.7 0 2.3-.5 3.3-2 3.7-1.5.4-2 1.4-2 3.9 0 2.1-.8 4.2-2 5.4-1.1 1.1-2 3.1-2 4.4 0 1.3-.9 3.5-2 4.9-1.1 1.4-2 3.9-2 5.7 0 2.3-.5 3.3-2 3.7-1.6.4-2 1.4-2 4.4 0 2.7-.4 3.9-1.4 3.9-1.5 0-2.6 2.1-2.6 5.2 0 1.1-.9 3.1-2 4.5-1.1 1.5-2 4.1-2 6 0 2.6-.5 3.6-2 4-1.6.4-2 1.4-2 4.3s-.4 3.9-2 4.3c-1.5.4-2 1.4-2 3.9 0 1.8-.9 4.4-2 5.8-1.1 1.4-2 3.5-2 4.7 0 3.2-1 5.3-2.6 5.3-1 0-1.4 1.2-1.4 3.9 0 3-.4 4-2 4.4-1.5.4-2 1.4-2 3.7 0 1.8-.9 4.3-2 5.7-1.1 1.4-2 3.6-2 4.9 0 3.3-1 5.4-2.6 5.4-1 0-1.4 1.2-1.4 3.8 0 2.6-.6 4.1-2 5-1.1.7-2 2.3-2 3.7 0 1.4-.9 3.4-2 4.5a8 8 0 0 0-2 5 8 8 0 0 1-2 5c-1.2 1.2-2 3.3-2 5.3 0 2.1-.7 3.6-2 4.5-1.2.7-2 2.3-2 3.8 0 1.4-.9 3.7-2 5.1-1.1 1.5-2 4.1-2 6 0 2.6-.5 3.6-2 4-1.6.4-2 1.4-2 4.3s-.4 3.9-2 4.3c-1.5.4-2 1.4-2 3.7 0 1.8-.9 4.3-2 5.7-1.1 1.4-2 3.9-2 5.4 0 1.8-.8 3.4-2 4.1-1.4.9-2 2.4-2 4.9 0 2.8-.5 3.8-2 4.2-1.5.4-2 1.4-2 3.7 0 1.8-.9 4.3-2 5.7-1.1 1.5-2 4.1-2 6 0 2.6-.5 3.6-2 4-1.6.4-2 1.4-2 4.4 0 2.7-.4 3.9-1.4 3.9-1.6 0-2.6 2.1-2.6 5.4 0 1.3-.9 3.5-2 4.9-1.1 1.4-2 3.9-2 5.7 0 2.3-.5 3.3-2 3.7-1.6.4-2 1.4-2 4.3s-.4 3.9-2 4.3c-1.5.4-2 1.4-2 3.7 0 1.8-.9 4.3-2 5.7-1.1 1.5-2 4.1-2 6 0 2.6-.5 3.6-2 4-1.6.4-2 1.4-2 4.3s-.4 3.9-2 4.3c-1.5.4-2 1.4-2 3.9 0 2.1-.7 4-2 5.1-1.3 1.1-2 2.9-2 5.2 0 2.4-.6 3.9-2 4.7-1.4.9-2 2.4-2 5 0 3.1-.4 3.8-2 3.8s-2 .7-2 3.6c0 2.1-.8 4.7-2 6.1-1.1 1.5-2 4.1-2 6 0 2.6-.5 3.6-2 4-1.6.4-2 1.4-2 4.4v3.9h56v-3.6c0-2.7.5-3.7 2-4.1 1.5-.4 2-1.4 2-3.9 0-2.1.8-4.2 2-5.4 1.3-1.3 2-3.3 2-6.1 0-3.2.4-4.2 2-4.6 1.5-.4 2-1.4 2-4.2 0-2.5.6-4 2-4.9 1.2-.7 2-2.3 2-4.1 0-1.5.9-4 2-5.4 1.1-1.4 2-3.9 2-5.7 0-2.3.5-3.3 2-3.7 1.5-.4 2-1.4 2-4.2 0-2.5.6-4 2-4.9 1.4-.8 2-2.3 2-4.7 0-2.3.7-4.1 2-5.2 1.3-1.2 2-3 2-5.4 0-2.8.5-3.8 2-4.2 1.6-.4 2-1.4 2-4.6 0-2.9.6-4.6 2-5.8 1.3-1.2 2-3 2-5.5v-3.8h148v2.5c0 1.4.9 3.4 2 4.5 1.2 1.2 2 3.3 2 5.4 0 2.5.5 3.5 2 3.9 1.6.4 2 1.4 2 4.6 0 2.9.6 4.6 2 5.8 1.3 1.1 2 3 2 5.1 0 2.5.5 3.5 2 3.9 1.5.4 2 1.4 2 4.2 0 2.4.7 4.2 2 5.4 1.4 1.2 2 2.9 2 5.8 0 3.2.4 4.2 2 4.6 1.5.4 2 1.4 2 3.9 0 2.1.8 4.2 2 5.4 1.2 1.2 2 3.3 2 5.5 0 2.4.6 3.9 2 4.7 1.3.9 2 2.4 2 4.5 0 2 .8 4.1 2 5.3a8 8 0 0 1 2 5c0 1.8.8 3.7 2 4.7 1.3 1.2 2 3 2 5.5v3.8h30c28.7 0 30-.1 30-1.9 0-1-.9-2.1-2-2.4-1.5-.4-2-1.4-2-3.7 0-1.8-.9-4.3-2-5.7-1.1-1.4-2-4.1-2-5.9 0-2.3-.6-3.7-2-4.4-1.3-.7-2-2.1-2-4.1 0-1.7-.9-4.2-2-5.6-1.1-1.4-2-3.9-2-5.4 0-1.8-.8-3.4-2-4.1-1.4-.9-2-2.4-2-4.9 0-2.8-.5-3.8-2-4.2-1.5-.4-2-1.4-2-3.7 0-1.8-.9-4.3-2-5.7-1.1-1.5-2-4.1-2-6 0-2.6-.5-3.6-2-4-1.6-.4-2-1.4-2-4.3s-.4-3.9-2-4.3c-1.6-.4-2-1.4-2-4.6 0-2.9-.6-4.6-2-5.8-1.3-1.1-2-3-2-5.1 0-2.5-.5-3.5-2-3.9-1.5-.4-2-1.4-2-4.2 0-2-.9-4.7-2-6.1-1.1-1.4-2-3.7-2-5.2 0-1.7-.8-3.3-2-4-1.4-.9-2-2.4-2-4.9 0-2.8-.5-3.8-2-4.2-1.5-.4-2-1.4-2-3.9 0-1.8-.9-4.4-2-5.8-1.1-1.4-2-4-2-5.8 0-2.5-.5-3.5-2-3.9-1.5-.4-2-1.4-2-4.2 0-2.5-.6-4-2-4.9-1.4-.8-2-2.3-2-4.7 0-2.3-.7-4.1-2-5.2-1.3-1.2-2-3-2-5.4 0-2.8-.5-3.8-2-4.2-1.5-.4-2-1.4-2-3.9 0-2.1-.7-4-2-5.1-1.2-1-2-2.9-2-4.7 0-1.8-.8-3.7-2-4.7-1.3-1.2-2-3-2-5.4 0-2.8-.5-3.8-2-4.2-1.5-.4-2-1.4-2-3.9 0-1.8-.9-4.4-2-5.8-1.1-1.4-2-4-2-5.8 0-2.5-.5-3.5-2-3.9-1.6-.4-2-1.4-2-4.3s-.4-3.9-2-4.3c-1.6-.4-2-1.4-2-4.6 0-2.9-.6-4.6-2-5.8-1.3-1.2-2-3-2-5.5 0-3.1-.4-3.8-2-3.8s-2-.7-2-3.6c0-2.1-.8-4.7-2-6.1-1.1-1.4-2-3.6-2-4.9 0-1.3-.9-3.3-2-4.4a8 8 0 0 1-2-5c0-1.9-.7-3.3-2-4-1.4-.7-2-2.1-2-4.3 0-2.1-.7-3.6-2-4.5-1.5-.9-2-2.3-2-5.2 0-2.9-.5-4.3-2-5.2-1.3-.9-2-2.4-2-4.5 0-2-.8-4.1-2-5.3-1.1-1.1-2-3.1-2-4.4 0-1.3-.9-3.5-2-4.9-1.1-1.4-2-3.9-2-5.6 0-2-.7-3.4-2-4.1-1.4-.7-2-2.1-2-4.4 0-2-.8-4-2-5.1-1.4-1.2-2-3.1-2-5.7 0-3.1-.4-4.1-2-4.5-1.6-.4-2-1.4-2-4.4 0-2.7-.4-3.9-1.4-3.9-1.6 0-2.6-2.1-2.6-5.4 0-1.3-.9-3.1-2-4.1-1.4-1.2-2-3.1-2-5.7 0-3.1-.4-4.1-2-4.5-1.5-.4-2-1.4-2-4.2 0-2.5-.6-4-2-4.9-1.4-.8-2-2.3-2-4.7 0-2.1-.7-4.1-1.9-5.2-1.1-1-2.1-3.1-2.3-4.8-.3-3.2-3.8-5-3.8-2.1zm3.4 115.2c.3.9.6 3.4.6 5.7 0 3.1.5 4.5 2 5.5 1.6.9 2 2.3 2 6.1 0 4 .3 5 2 5.4 1.7.4 2 1.4 2 5.7 0 4.3.3 5.3 2 5.7 1.5.4 2 1.4 2 4 0 2 .9 4.6 2 6 1.2 1.5 2 4.1 2 6.3 0 2.9.4 3.9 2 4.3 1.5.4 2 1.4 2 4 0 1.9.9 4.5 2 6 1.2 1.4 2 4 2 6.1 0 2.4.5 3.6 1.4 3.6 1.7 0 2.6 2.2 2.6 6.1 0 1.7.8 3.6 2 4.6 1.3 1.2 2 3 2 5.4 0 2.8.5 3.8 2 4.2 1.6.4 2 1.4 2 4.6 0 2.8.7 4.8 2 6.1 1.2 1.2 2 3.3 2 5.4 0 2.5.5 3.5 2 3.9 1.5.4 2 1.4 2 3.6 0 1.8.9 4 2 5.1 1.3 1.3 2 3.3 2 6.1 0 3.2.4 4.2 2 4.6 1.1.3 2 1.4 2 2.4 0 1.7-2.3 1.8-48.7 2.3-58.9.5-53.1.3-57.1 2.2-4.4 2.1-6.2 1.3-6.2-3 0-2.5.5-3.5 2-3.9 1.5-.4 2-1.4 2-4 0-1.9.9-4.5 2-6 1.1-1.4 2-4 2-5.9 0-2.1.7-4 2-5.1 1.4-1.2 2-2.9 2-5.8 0-3.2.4-4.2 2-4.6 1.6-.4 2-1.4 2-4.3 0-2.2.8-4.8 2-6.3 1.1-1.4 2-3.9 2-5.7 0-2.3.5-3.3 2-3.7 1.5-.4 2-1.4 2-4 0-2 .9-4.6 2-6 1.2-1.5 2-4.1 2-6.3 0-2.9.4-3.9 2-4.3 1.5-.4 2-1.4 2-4 0-1.9.9-4.5 2-6 1.1-1.4 2-3.9 2-5.7 0-2.3.5-3.3 2-3.7 1.5-.4 2-1.4 2-4.2 0-2.4.7-4.2 2-5.4 1.4-1.2 2-2.9 2-5.8 0-3.2.4-4.2 2-4.6 1.6-.4 2-1.4 2-4.4 0-2.7.4-3.9 1.4-3.9 1.7 0 2.6-2.2 2.6-6.1 0-1.6.8-3.7 1.8-4.7s2.1-2.6 2.5-3.5c.8-2.1 2.3-2.2 3.1-.1zM307.7 2390c-1.4 1.6-2.9 2-8.5 2-5.5 0-7.1.4-8.5 2-1.2 1.4-2.9 2-5.8 2-2.6 0-5 .7-6.6 2-1.6 1.2-4.1 2-6.4 2-3.2 0-3.9.3-3.9 2 0 1.6-.7 2-3.8 2-2.5 0-4.3.7-5.5 2-.9 1.1-2.8 2-4.1 2-1.5 0-2.6.7-2.9 2-.4 1.5-1.4 2-4.1 2-2.9 0-3.6.4-3.6 2s-.7 2-3 2c-1.9 0-3.4.7-4.2 2-.7 1.1-1.8 2-2.5 2s-2.2.9-3.3 2c-1.1 1.1-2.9 2-4.1 2-1.2 0-2.3.8-2.6 2-.3 1.1-1.4 2-2.4 2-1.2 0-1.9.7-1.9 2s-.7 2-1.9 2c-1 0-2.1.9-2.4 2-.3 1.1-1.2 2-2.1 2-.9 0-1.6.7-1.6 1.5 0 .9-.8 1.8-1.7 2.2-2.2.7-17.7 16.4-18.6 18.7-.4.9-1.3 1.6-2.2 1.6-.8 0-1.5.9-1.5 2s-.7 2-1.5 2c-.9 0-1.9.8-2.2 1.7-.4 1-1.5 2.9-2.5 4.2-1 1.3-1.8 3.2-1.8 4.2 0 1.2-.7 1.9-2 1.9-1.2 0-2 .7-2 1.6 0 .9-.9 2.7-2 4.1-1.1 1.4-2 3.4-2 4.3 0 1-.9 2-2 2.3-1.5.4-2 1.4-2 4s-.5 3.6-2 4c-1.5.4-2 1.4-2 4 0 1.9-.9 4.5-2 6-1.1 1.4-2 3.9-2 5.6 0 1.8-.9 4-2 5.1-1.5 1.5-2 3.3-2 7s-.5 5.5-2 7c-1.6 1.6-2 3.3-2 9s-.4 7.4-2 9c-1.9 1.9-2 3.4-2.1 20.7 0 10.4 0 27.5.1 38.1.2 17.6.3 19.5 2.1 21.3 1.5 1.5 1.9 3.3 1.9 8 0 4.6.5 6.7 2 8.6 1.2 1.5 2 4.1 2 6.2 0 2.4.7 4.2 2 5.4 1.5 1.2 2 2.9 2 6.2 0 3.8.3 4.5 2 4.5s2 .7 2 3.9c0 3.1.4 4.1 2 4.6 1.5.5 2 1.5 2 4 0 2.4.5 3.4 2 3.8 1.5.4 2 1.4 2 4s.5 3.6 2 4c1.3.3 2 1.4 2 3.1 0 1.5.8 3.1 2 3.8 1.1.7 2 2.1 2 3 0 1.1.8 1.8 2 1.8s2 .7 2 1.8c0 1 .9 2.5 2 3.5 1.1.9 2 2.6 2 3.8 0 1.2.8 2.3 2 2.6 1.1.3 2 1.4 2 2.4 0 1.2.7 1.9 2 1.9s2 .7 2 2 .7 2 2 2 2 .7 2 2 .7 2 2 2 2 .7 2 2 .7 2 2 2 2 .7 2 2 .7 2 2 2 2 .7 2 2 .7 2 2 2c1.1 0 2 .7 2 1.5s1.5 2.1 3.4 2.9c1.8.8 3.7 1.9 4 2.5.4.6 1.6 1.1 2.7 1.1 1.2 0 1.9.7 1.9 2 0 1.2.7 2 1.8 2 1 0 2.5.9 3.5 2 .9 1.1 2.8 2 4.2 2 1.8 0 2.5.5 2.5 2 0 1.6.7 2 3.6 2 2.7 0 3.7.5 4.1 2 .4 1.6 1.4 2 4.4 2 3.2 0 3.9.3 3.9 2s.7 2 3.8 2c2.6 0 4.5.7 5.7 2 1.2 1.3 3.1 2 5.7 2 2.5 0 4.5.7 5.8 2 1.4 1.4 3.3 2 6.4 2 2.8 0 5.2.7 6.9 2 2.1 1.6 4 2 11 2 6.8 0 8.9.4 10.3 1.7 1.6 1.6 4.4 1.8 28.6 1.8 22.8 0 27-.2 27.8-1.5.7-1.1 3.3-1.6 10.2-1.9 7.2-.2 9.8-.7 11.7-2.2 1.6-1.3 4-1.9 7.5-1.9 3.9 0 5.6-.5 6.9-2 1.2-1.4 2.9-2 6.2-2 3.4 0 4.7-.5 5.5-2 .7-1.3 2.1-2 4.1-2 1.7 0 4.2-.9 5.6-2 1.4-1.1 3.6-2 4.9-2 1.3 0 3.3-.9 4.4-2 1.1-1.1 3.3-2 5.1-2 2.2 0 3.2-.5 3.6-2 .3-1.3 1.4-2 2.8-2 3.4 0 5.5-1 5.5-2.6 0-.8.9-1.4 2-1.4 1.6 0 2-.7 2-3.6 0-2.7-.5-3.7-2-4.1-1.4-.4-2-1.4-2-3.4 0-1.8-.8-3.4-2-4.1-1.2-.8-2-2.4-2-4 0-1.7-.8-3.3-2-4-1.1-.7-2-2.3-2-3.6 0-1.2-.9-3-2-3.9-1.1-1-2-3-2-4.5 0-1.7-.8-3.3-2-4-1.1-.7-2-2.1-2-3 0-2.7-7-2.5-7.7.2-.3 1.1-1.3 2-2.3 2-.9 0-2.7.9-4 2-1.3 1.1-3.3 2-4.5 2-1.2 0-3 .9-4 2s-2.9 2-4.2 2c-1.3 0-3.1.9-4 2-1.2 1.3-3 2-5.4 2-2.3 0-4.2.7-5.4 2-1.2 1.4-3.1 2-5.7 2-2.5 0-5 .8-6.5 2-2.1 1.6-4.1 2-11.2 2-6.6 0-9.2.4-11.1 1.7-2.1 1.5-4.8 1.8-16.6 1.8-10.4 0-14.5-.4-15.7-1.4-1-.8-5.2-1.5-10.4-1.8-6.5-.4-9.5-1-11.5-2.4-1.8-1.3-4.4-1.9-7.7-1.9-4 0-5.2-.4-6.1-2-.8-1.5-2.1-2-5-2-2.8 0-4.6-.6-5.7-2-1.1-1.3-3-2-5.1-2-2.5 0-3.5-.5-3.9-2-.3-1.3-1.4-2-2.9-2-1.3 0-3.2-.9-4.1-2-1-1.1-2.5-2-3.4-2-.9 0-1.9-.9-2.2-2-.3-1.3-1.4-2-3-2-1.4 0-3.2-.8-3.9-1.8-.7-1-2.1-2.1-3-2.5-1-.3-1.8-1.3-1.8-2.2 0-.8-.9-1.5-2-1.5-1.3 0-2-.7-2-2s-.7-2-2-2-2-.7-2-2-.7-2-2-2-2-.7-2-2c0-1.1-.7-2-1.4-2-1.5 0-2.9-2.1-6.1-8.8-.8-1.7-2.2-3.2-3-3.2-.8 0-1.5-.7-1.5-1.6 0-.9-.9-2.7-2-4.1-1.1-1.4-2-3.2-2-3.9 0-.8-.9-2.3-2-3.4s-2-3.1-2-4.4c0-1.5-.7-2.6-2-2.9-1.5-.4-2-1.4-2-3.7 0-1.8-.9-4.3-2-5.7-1.1-1.4-2-4.1-2-5.9 0-2.1-.8-4.2-2-5.4-1.5-1.5-2-3.3-2-7 0-3.1-.8-6.4-2-8.7-1.9-3.5-2-5.7-2-31.1 0-25.9.1-27.5 2-29.9 1.5-2 2-4.1 2-8.9 0-7.1.6-9.4 2.6-9.4 1 0 1.4-1.5 1.4-5.6 0-4.7.3-5.7 2-6.1 1.6-.4 2-1.4 2-4.3s.4-3.9 2-4.3c1.5-.4 2-1.4 2-4s.5-3.6 2-4c1.5-.4 2-1.4 2-4.1 0-2.9.4-3.6 2-3.6 1.3 0 2-.7 2-1.8s.9-2.7 2-3.7 2-2.7 2-3.7c0-1.1.9-2.2 2-2.5 1.1-.3 2-1.4 2-2.4 0-1.2.7-1.9 2-1.9s2-.7 2-2 .7-2 2-2 2-.7 2-2 .7-2 2-2 2-.7 2-2 .7-2 2-2 2-.7 2-2 .7-2 1.9-2c1 0 2.1-.9 2.4-2 .3-1.1 1.2-2 2-2s1.7-.9 2-2c.4-1.5 1.4-2 3.7-2 2.3 0 3.3-.5 3.7-2 .3-1.1 1.3-2 2.2-2 .9 0 2.2-.9 2.9-2 .7-1.2 2.3-2 4-2 1.6 0 3.2-.8 4-2 .7-1.2 2.3-2 4-2 1.5 0 3.5-.9 4.5-2 1.1-1.3 2.9-2 5.2-2 2.3 0 4.1-.7 5.2-2 1.4-1.6 3-2 8-2 5.1 0 6.7-.4 8-2 1.7-1.9 3-2 29-2 22.6 0 27.3.2 27.3 1.4 0 1.8 3.1 2.6 10.8 2.6 5 0 6.6.4 7.9 2 1.1 1.3 3 2 5.3 2s4.2.7 5.3 2c1.1 1.3 2.9 2 5.2 2 2.4 0 3.9.6 4.7 2 .9 1.4 2.4 2 4.6 2 2.5 0 3.5.5 3.9 2 .3 1.3 1.4 2 2.9 2 1.3 0 3.3.9 4.4 2 1.1 1.1 2.6 2 3.4 2 .7 0 2.5.9 3.9 2 4.1 3.2 5.7 2.6 5.7-2 0-2.8.4-4 1.4-4 1.7 0 2.6-2.2 2.6-6.6 0-2.3.6-3.8 2-4.6 1.4-.9 2-2.4 2-4.9 0-2.8.5-3.8 2-4.2 1.7-.4 2-1.4 2-5.7 0-4.3.3-5.3 2-5.7 2.7-.7 3-8.3.2-8.3-.9 0-2.3-.9-3-2-.7-1.2-2.3-2-3.8-2-1.7 0-2.8-.7-3.1-2-.3-1.3-1.4-2-2.9-2-1.3 0-3.2-.9-4.1-2-1-1.1-2.4-2-3.3-2-.9 0-2.3-.9-3.3-2-1-1.2-2.9-2-4.7-2-1.8 0-3.7-.8-4.7-2-1.1-1.3-3-2-5.1-2-1.9 0-4.5-.9-5.9-2-1.5-1.2-4.1-2-6.3-2s-4.8-.8-6.3-2c-2-1.6-4-2-9.7-2-5.7 0-7.7-.4-9.7-2-2.4-1.9-4.1-2-33.7-2-29.9 0-31.2.1-32.9 2zm576.7-.3c-1.4 1.4-3.8 1.9-11 2.1-8.1.3-9.3.6-9.7 2.3-.4 1.6-1.4 1.9-5.9 1.9-4.2 0-5.6.4-6.6 2-.9 1.5-2.3 2-5.2 2-2.9 0-4.3.5-5.2 2-.9 1.4-2.4 2-4.9 2-2.8 0-3.8.5-4.2 2-.4 1.5-1.4 2-4.1 2-2.9 0-3.6.4-3.6 2s-.7 2-3.6 2c-2.7 0-3.7.5-4.1 2-.3 1.1-1.2 2-2 2s-2.6.9-4 2-3.4 2-4.4 2c-1.2 0-1.9.7-1.9 2s-.7 2-1.9 2c-1 0-2.1.9-2.4 2-.3 1.1-1.4 2-2.5 2s-2.6.7-3.3 1.6c-.7.9-2.3 2-3.6 2.5-1.3.5-2.3 1.5-2.3 2.4 0 .8-.9 1.5-2 1.5-1.3 0-2 .7-2 2s-.7 2-2 2-2 .7-2 2-.7 2-2 2-2 .7-2 2-.7 2-2 2-2 .7-2 2-.7 2-2 2-2 .7-2 2-.7 2-2 2-2 .7-2 2-.7 2-2 2c-1.2 0-2 .7-2 1.8 0 1-.9 2.5-2 3.5-1.1.9-2 2.6-2 3.8 0 1.2-.8 2.3-2 2.6-1.1.3-2 1.3-2 2.3 0 1-.9 2-2 2.3-1.2.3-2 1.4-2 2.6 0 1.2-.9 3-2 4.1-1.1 1.1-2 2.5-2 3.1 0 .6-.9 2.2-2 3.6s-2 3.4-2 4.3c0 1-.9 2-2 2.3-1.5.4-2 1.4-2 3.9 0 2.1-.7 4-2 5.1-1.4 1.2-2 2.9-2 5.8 0 3.2-.4 4.2-2 4.6-1.7.5-2 1.4-2 5.9 0 4.3-.4 5.5-2 6.4-1.7.9-2 2.1-2 8.1 0 5.5-.5 7.7-2 10-2 2.7-2.1 4-1.8 39.4.3 33.6.4 36.8 2.1 37.9 1.3 1.1 1.7 2.8 1.7 8.5 0 5.8.4 7.5 2 9.1 1.3 1.3 2 3.3 2 6.1 0 2.6.7 5 2 6.6 1.2 1.6 2 4.1 2 6.4 0 2.7.4 3.9 1.4 3.9 1.5 0 2.6 2.1 2.6 5.2 0 1.1.9 3.1 2 4.5s2 3.2 2 4c0 .8.9 2.6 2 4s2 3.4 2 4.3c0 1 .9 2 2 2.3 1.5.4 2 1.4 2 3.7 0 2.3.5 3.3 2 3.7 1.1.3 2 1.3 2 2.2 0 .9.9 2.2 2 2.9 1.2.7 2 2.3 2 3.8 0 1.7.7 2.8 2 3.1 1.1.3 2 1.4 2 2.4 0 1.2.7 1.9 2 1.9s2 .7 2 2 .7 2 2 2 2 .7 2 2c0 1.2.7 2 1.6 2 .9 0 1.8.9 2.1 2 .3 1.1 1.2 2 1.9 2 .8 0 1.7.7 2.1 1.6.8 2.1 4.6 5.9 6.7 6.7.9.4 1.6 1.3 1.6 2.2 0 .8.9 1.5 2 1.5 1.3 0 2 .7 2 2s.7 2 2 2 2 .7 2 2c0 1.2.7 2 1.8 2 1 0 2.5.9 3.5 2 .9 1.1 2.8 2 4.2 2 1.8 0 2.5.5 2.5 2 0 1.2.7 2 1.6 2 .9 0 2.7.9 4.1 2 1.4 1.1 3.4 2 4.3 2 1 0 2 .9 2.3 2 .4 1.5 1.4 2 3.7 2 2.3 0 3.3.5 3.7 2 .4 1.6 1.4 2 4.3 2s3.9.4 4.3 2c.4 1.6 1.4 2 4.6 2 2.9 0 4.6.6 5.8 2 1.1 1.3 3 2 5.1 2 1.9 0 4.5.9 5.9 2 1.9 1.5 4.1 2 8.1 2 3.9 0 6.1.5 7.5 1.7 1.5 1.4 4.5 1.9 12.8 2.4 7.5.5 11.7 1.2 13.4 2.3 2 1.3 5.6 1.6 21.7 1.6 17-.1 19.8-.3 23.3-2 3-1.4 6.2-1.9 12.6-2 7.1 0 9-.3 10.9-2 1.6-1.4 3.7-2 7-2 3.2 0 5.5-.6 7.3-2 1.4-1.1 4-2 5.9-2 2.1 0 4-.7 5.1-2 1.2-1.4 2.9-2 5.8-2 3.2 0 4.2-.4 4.6-2 .4-1.6 1.4-2 4.4-2 3.2 0 3.9-.3 3.9-2 0-1.6.7-2 3.6-2 2.7 0 3.7-.5 4.1-2 .3-1.1 1.3-2 2.3-2 .9 0 2.9-.9 4.3-2s3.2-2 4.1-2c.9 0 1.6-.8 1.6-2 0-1.3.7-2 1.8-2s2.7-.9 3.7-2 2.4-2 3.1-2c.8 0 1.9-.9 2.6-2 .7-1.1 2.1-2 3-2 1.1 0 1.8-.8 1.8-2 0-1.3.7-2 2-2 1.1 0 2-.7 2-1.5 0-.9.7-1.8 1.5-2.1 2.5-1 22.5-21.3 22.5-22.9 0-.8.9-1.5 2-1.5 1.3 0 2-.7 2-2s.7-2 2-2 2-.7 2-2c0-1.1.7-2 1.5-2s2.1-1.5 2.9-3.4c.8-1.8 1.9-3.7 2.5-4 .6-.4 1.1-1.6 1.1-2.7 0-1.2.7-1.9 2-1.9 1.6 0 2-.7 2-3.6 0-2.7.5-3.7 2-4.1 1.5-.4 2-1.4 2-4s.5-3.6 2-4c1.4-.4 2-1.4 2-3.4 0-1.8.8-3.4 2-4.1 1.3-.9 2-2.4 2-4.5 0-2.2.6-3.6 2-4.3 1.6-.9 2-2.1 2-6.3 0-4.1.4-5.5 2-6.5s2-2.3 2-7.2c0-4.8.4-6.4 2-7.7 1.8-1.6 2-3 2-13.8 0-7.8.6-14.5 1.7-19.3 1.6-6.9 1.6-7.7 0-13.7-1.1-4.2-1.7-10.2-1.7-17.8 0-9.9-.3-11.8-2-14-1.5-1.9-2-4-2-8.6 0-4.9-.4-6.5-2-7.8-1.4-1.2-2-3-2-6s-.6-4.9-2-6.3c-1.2-1.2-2-3.3-2-5.3s-.8-3.9-2-5c-1.2-1-2-2.9-2-4.7 0-1.8-.8-3.7-2-4.7-1.1-1-2-2.4-2-3.3 0-.9-.9-2.3-2-3.3-1.1-.9-2-2.8-2-4.1 0-1.5-.7-2.6-2-2.9-1.3-.3-2-1.4-2-3.1 0-1.5-.8-3.1-2-3.8-1.1-.7-2-2.1-2-3 0-1-.6-1.8-1.4-1.8-.8 0-2-1.6-2.6-3.5-.6-1.9-1.6-3.5-2.1-3.5s-1.4-1.1-1.9-2.5-1.6-2.5-2.5-2.5c-.8 0-1.5-.9-1.5-2 0-1.3-.7-2-2-2s-2-.7-2-2-.7-2-2-2-2-.7-2-2-.7-2-2-2-2-.7-2-1.9c0-1-.9-2.1-2-2.4-1.1-.3-2-1.2-2-2s-.9-1.7-2-2c-1.1-.3-2-1.2-2-2.1 0-.9-.8-1.6-2-1.6-1.3 0-2-.7-2-2s-.7-2-2-2-2-.7-2-2c0-1.2-.7-2-1.8-2-.9 0-2.3-.9-3-2-.7-1.1-2.1-2-3.2-2s-2.5-.9-3.2-2c-.7-1.1-2.1-2-3-2-1.1 0-1.8-.8-1.8-2 0-1.6-.7-2-3-2-1.9 0-3.4-.7-4.2-2-.7-1.1-2-2-2.8-2-.8 0-2.1-.9-2.8-2-.8-1.3-2.3-2-4.2-2-2.3 0-3-.4-3-2 0-1.7-.7-2-3.9-2-3 0-4-.4-4.4-2-.4-1.5-1.4-2-3.7-2-1.8 0-4.3-.9-5.7-2-1.6-1.2-4.1-2-6.4-2-2.7 0-3.9-.4-3.9-1.4 0-1.8-2.2-2.6-7.2-2.6-2.7 0-4.5-.6-5.3-1.7-1-1.3-3.4-1.9-9.4-2.3-5.5-.5-8.6-1.2-9.9-2.3-1.7-1.5-5.2-1.7-32-1.7-27.3 0-30.2.2-31.8 1.7zM938 2438c1.8 1.4 4.1 2 8.1 2 4.1 0 6.3.5 8.2 2 1.6 1.3 4 2 6.6 2 2.9 0 4.6.6 5.8 2 1 1.1 3 2 4.5 2 1.7 0 3.3.8 4 2 .8 1.2 2.4 2 4 2 1.7 0 3.3.8 4 2 .7 1.1 2 2 2.8 2 .8 0 2.1.9 2.8 2 .7 1.2 2.3 2 3.8 2 1.7 0 2.8.7 3.1 2 .3 1.1 1.4 2 2.4 2 1.1 0 1.9.7 1.9 1.5 0 .9 1 1.9 2.3 2.4 1.3.5 2.9 1.6 3.6 2.5.7.9 1.9 1.6 2.7 1.6.7 0 1.9.8 2.6 1.8.7 1 2.1 2.1 3.1 2.5.9.3 1.7 1.3 1.7 2.2 0 .8.7 1.5 1.5 1.5.9 0 1.9.8 2.2 1.7.4 1 1.5 2.4 2.5 3.1 1 .7 1.8 1.9 1.8 2.6 0 .8.7 2 1.6 2.7.9.7 2 2.3 2.5 3.6.5 1.3 1.5 2.3 2.4 2.3.8 0 1.5.9 1.5 2 0 1.3.7 2 2 2 1.2 0 2 .7 2 1.8 0 1 .9 2.5 2 3.5 1.1.9 2 2.8 2 4.1 0 1.5.7 2.6 2 2.9 1.5.4 2 1.4 2 3.7 0 2.3.5 3.3 2 3.7 1.6.4 2 1.4 2 4.4 0 3.2.3 3.9 2 3.9 1.6 0 2 .7 2 3.5 0 2.2.8 4.3 2 5.5 1.4 1.4 2 3.3 2 6.1s.6 4.6 1.7 5.5c1.4.9 1.9 3.3 2.3 9.7.4 6.2 1.1 8.9 2.4 10.2 1.5 1.6 1.7 3.9 1.4 23.7-.3 19.6-.5 22.1-2 23.2-1.3 1-1.8 2.7-1.8 6.8 0 4-.6 6.2-2 8.1-1.1 1.4-2 4-2 5.9 0 2.2-.6 3.7-2 4.6-1.2.7-2 2.3-2 4.1 0 1.5-.9 4-2 5.4-1.1 1.4-2 3.1-2 3.9 0 .7-.9 1.9-2 2.6-1.3.8-2 2.3-2 4.2 0 2.3-.4 3-2 3-1.3 0-2 .7-2 1.9 0 1-.9 2.1-2 2.4-1.3.3-2 1.4-2 3.1 0 1.5-.8 3.1-2 3.8-1.1.7-2 2.1-2 3 0 1.1-.8 1.8-2 1.8-1.3 0-2 .7-2 2s-.7 2-2 2-2 .7-2 2-.7 2-2 2-2 .7-2 2-.7 2-2 2-2 .7-2 2c0 1.2-.7 2-1.8 2-.9 0-2.3.9-3 2-.7 1.1-2.1 2-3.2 2s-2.5.9-3.2 2c-.7 1.1-2 2-2.9 2-.9 0-1.9.9-2.2 2-.3 1.3-1.4 2-3.1 2-1.5 0-3.1.8-3.8 2-.7 1.1-2 2-2.8 2-.9 0-2.3.9-3.3 2-.9 1.1-2.7 2-3.9 2-1.3 0-2.9.9-3.6 2-.7 1.2-2.3 2-4 2-1.5 0-3.8.9-5.2 2-1.4 1.1-4.1 2-6.1 2-2.8 0-3.8.5-4.2 2-.4 1.7-1.4 2-7.1 2-5.1 0-6.9.4-8.3 1.9-1.6 1.7-3.6 1.9-17.8 2.1-8.8.2-22.2.2-29.7.1-12.4-.1-14-.3-15.8-2.1-1.5-1.5-3.3-2-7-2s-5.5-.5-7-2a8 8 0 0 0-5-2 8 8 0 0 1-5-2c-1.1-1.1-3.3-2-5.1-2-2.2 0-3.2-.5-3.6-2-.3-1.1-1.3-2-2.3-2-.9 0-2.9-.9-4.3-2s-3.2-2-4-2c-.8 0-1.7-.9-2-2-.3-1.3-1.4-2-3-2-1.4 0-3.2-.8-3.9-1.8-.7-1-2.1-2.1-3-2.5-1-.3-1.8-1.3-1.8-2.2 0-.8-.9-1.5-2-1.5-1.3 0-2-.7-2-2s-.7-2-2-2-2-.7-2-2-.7-2-2-2-2-.7-2-2c0-1.1-.7-2-1.5-2-.9 0-1.9-.8-2.2-1.8-.4-.9-1.5-2.3-2.5-3-1-.7-1.8-2.5-1.8-3.9 0-1.6-.7-2.7-2-3-1.1-.3-2-1.3-2-2.3 0-1-.9-2-2-2.3-1.5-.4-2-1.4-2-3.7 0-2.3-.5-3.3-2-3.7-1.2-.3-2-1.4-2-2.8 0-1.2-.9-3-2-4s-2-2.9-2-4.2c0-1.2-.9-3.2-2-4.3-1.2-1.2-2-3.3-2-5.4 0-2.5-.5-3.5-2-3.9-1.7-.4-2-1.4-2-5.7 0-4.3-.3-5.3-2-5.7-1.7-.5-2-1.4-2-6.8 0-4.8-.5-6.8-2-8.8-2-2.5-2.1-3.7-1.8-29 .3-23.5.5-26.5 2.1-28.1 1.2-1.2 1.7-3.3 1.7-7.2 0-4.1.5-5.9 2-7.4 1.3-1.3 2-3.3 2-6 0-2.8.6-4.5 2-5.7 1.3-1.2 2-3 2-5.5 0-3.1.4-3.8 2-3.8s2-.7 2-3.6c0-2.7.5-3.7 2-4.1 1.3-.3 2-1.4 2-2.9 0-1.3.9-3.2 2-4.1 1.1-1 2-2.5 2-3.5s.7-1.8 1.5-1.8c.9 0 1.9-1 2.4-2.3.5-1.3 1.6-2.9 2.5-3.6.9-.7 1.6-2.2 1.6-3.3 0-1.1.9-2.2 2-2.5 1.1-.3 2-1.4 2-2.4 0-1.2.7-1.9 2-1.9s2-.7 2-2 .7-2 2-2 2-.7 2-2 .7-2 2-2 2-.7 2-2 .7-2 2-2c1.1 0 2-.7 2-1.5 0-.9 1-1.9 2.3-2.4 1.3-.5 2.9-1.6 3.6-2.5.7-.9 2.2-1.6 3.3-1.6 1.1 0 2.2-.9 2.5-2 .3-1.1 1.2-2 1.9-2 .8 0 2.3-.9 3.4-2s3.1-2 4.5-2c1.8 0 2.5-.5 2.5-2 0-1.7.7-2 4-2s4-.3 4-2 .7-2 3.9-2c3 0 4-.4 4.4-2 .4-1.7 1.4-2 5.6-2 4 0 5.2-.4 6.1-2 .9-1.7 2.1-2 8.1-2 5.6 0 7.6-.4 9.6-2 2.4-1.8 4.1-2 22.2-2 17.9 0 19.8.2 22.1 2zm2345.5-48c-2.3 1.5-4.6 2-9.7 2-5.5 0-7.2.4-8.8 2-1.3 1.3-3.3 2-6 2-2.8 0-4.5.6-5.7 2-1.1 1.2-3 2-5 2s-4.1.8-5.3 2c-1.1 1.1-2.9 2-4.1 2-1.1 0-3.2.9-4.6 2-1.4 1.1-3.3 2-4.2 2-.9 0-2.2.9-2.9 2-.7 1.2-2.3 2-3.8 2-1.7 0-2.8.7-3.1 2-.3 1.1-1.1 2-1.9 2-1.5 0-4.8 2.7-10.2 8.4-2 2.2-4.7 5-5.9 6.3-1.3 1.3-2.3 3-2.3 3.8 0 .8-.9 1.5-2 1.5-1.2 0-2 .7-2 1.6 0 .9-.9 2.7-2 4.1-1.1 1.4-2 3.2-2 4 0 .8-.9 2.6-2 4-1.2 1.5-2 4.1-2 6.3 0 2.8-.5 3.9-1.9 4.3-1.6.4-1.9 1.7-2.3 9.6-.3 6.3-.9 9.5-1.8 10.1-.9.6-1.5 4-1.8 11.4-.4 9.4-.2 10.9 1.7 14.1 1.5 2.7 2.1 5.3 2.1 10 0 5.4.3 6.7 2 7.7 1.4.9 2 2.4 2 4.6 0 1.9.9 4.5 2 5.9 1.1 1.4 2 3.4 2 4.3 0 1 .7 2 1.5 2.3.8.4 2.1 2.2 2.9 4.2.8 1.9 2 3.5 2.5 3.5.6 0 1.1.9 1.1 2 0 1.3.7 2 2 2s2 .7 2 2 .7 2 2 2 2 .7 2 2 .7 2 2 2 2 .7 2 2 .7 2 1.9 2c1 0 2.1.9 2.4 2 .3 1.1 1.4 2 2.5 2 1 0 2.7.9 3.7 2s2.6 2 3.7 2 1.8.7 1.8 2c0 1.6.7 2 3 2 1.9 0 3.4.7 4.2 2 .7 1.1 2 2 2.9 2 .9 0 2.8.9 4.2 2 1.4 1.1 3.9 2 5.5 2 2.2 0 3.2.6 3.7 2 .5 1.5 1.5 2 4.5 2 2.9 0 3.9.4 4.3 2 .4 1.7 1.4 2 6.1 2 4.1 0 5.6.4 5.6 1.4 0 1.8 2.2 2.6 7.3 2.6 3.1 0 4.5.5 5.5 2 .9 1.5 2.3 2 5.8 2 3.7 0 4.7.4 5.1 2 .4 1.5 1.4 2 4 2s3.6.5 4 2c.4 1.6 1.4 2 4.4 2 3.2 0 3.9.3 3.9 2s.7 2 4 2 4 .3 4 2c0 1.6.7 2 3.6 2 2.7 0 3.7.5 4.1 2 .3 1.2 1.4 2 2.8 2 1.2 0 3 .9 4 2s2.6 2 3.7 2c1 0 1.8.7 1.8 1.4 0 1.5 2.1 2.9 8.8 6.1 1.7.8 3.2 2.2 3.2 3 0 .8.9 1.5 2 1.5 1.3 0 2 .7 2 2 0 1.1.7 2 1.5 2 .9 0 1.9.8 2.2 1.7.4 1 1.5 2.9 2.5 4.2 1 1.3 1.8 3.2 1.8 4.1 0 1 .9 2 2 2.3 1.7.4 2 1.4 2 7 0 3.6.7 8.1 1.6 10.2 1.4 3.4 1.4 4.3 0 9.9-.9 3.4-1.6 8.5-1.6 11.2 0 3.8-.4 5.2-2 6.2-1.3.8-2 2.3-2 4.2 0 2.3-.4 3-2 3-1.3 0-2 .7-2 1.8 0 1.9-7.4 9.5-10.2 10.5-1 .4-1.8 1.3-1.8 2.2 0 .8-.8 1.5-1.8 1.5-.9 0-2.3.9-3 2-.7 1.2-2.3 2-4.1 2-1.5 0-4 .9-5.4 2-1.7 1.3-4 2-7.1 2-3.3 0-5 .6-6.5 2.1-1.9 2.1-2.6 2.1-32.5 2.1-29.4-.1-30.7-.1-33.2-2.1-2-1.5-4.1-2.1-8-2.1-4.1 0-5.9-.5-7.4-2-1.3-1.3-3.3-2-6.1-2-2.6 0-5-.7-6.6-2-1.4-1.1-3.9-2-5.4-2-1.8 0-3.4-.8-4.1-2-.9-1.4-2.4-2-4.9-2-2.8 0-3.8-.5-4.2-2-.4-1.5-1.4-2-4-2s-3.6-.5-4-2c-.4-1.5-1.4-2-4.1-2-3 0-3.6-.4-3.6-2.1 0-1.7-.5-2-3.7-1.7-3.6.3-3.8.5-4.1 4-.3 3-.7 3.8-2.3 3.8-1.4 0-1.9.7-1.9 2.5 0 1.4-.9 3.4-2 4.5s-2 2.5-2 3.1c0 .6-.9 2.2-2 3.6s-2 3.3-2 4.2c0 .9-.9 2.2-2 2.9-1.2.7-2 2.3-2 4.1 0 2-.6 3-2 3.4-2.5.7-2.6 2.7-.1 3.4 1.1.3 2.1 1.3 2.4 2.4.4 1.4 1.4 1.9 3.7 1.9 2.3 0 3.3.5 3.7 2 .3 1.3 1.4 2 2.9 2 1.3 0 3.2.9 4.1 2 1 1.1 2.5 2 3.4 2 .9 0 2.8.9 4.2 2 1.4 1.1 3.2 2 4 2 .7 0 2.2.9 3.2 2s3.1 2 4.6 2c3.8 0 5.9.9 5.9 2.6 0 1 1.2 1.4 3.9 1.4 2.3 0 4.8.8 6.4 2 1.8 1.4 4 2 8 2 4.5 0 5.6.3 6 1.9.4 1.6 1.6 1.9 9.2 2.2 6.5.3 9 .8 9.8 2 1 1.4 4.4 1.7 23.2 2 12.1.1 29.5.2 38.6.1 15-.2 16.8-.4 18.9-2.2 1.8-1.5 3.7-2 8.6-2 5.3 0 6.5-.3 7.4-2 .9-1.6 2.1-2 6.5-2 4.8 0 5.5-.2 5.5-2 0-1.7.7-2 3.9-2 3 0 4-.4 4.4-2 .4-1.5 1.4-2 4.1-2 2.9 0 3.6-.4 3.6-2 0-1.3.7-2 1.9-2 1 0 2.1-.9 2.4-2 .4-1.5 1.4-2 3.7-2 2.3 0 3.3-.5 3.7-2 .3-1.1 1.2-2 2-2s1.7-.9 2-2c.3-1.1 1.2-2 1.9-2 .8 0 1.8-.8 2.1-1.8.4-.9 1.5-2.3 2.5-3 1-.7 1.8-2.5 1.8-3.9 0-1.6.7-2.7 2-3 1.1-.3 2-1.3 2-2.3 0-1 .9-2 2-2.3 1.5-.4 2-1.4 2-4s.5-3.6 2-4c1.5-.4 2-1.4 2-3.7 0-1.8.9-4.3 2-5.7 1.3-1.7 2-4.1 2-6.9 0-3.1.6-5 2-6.4 1.7-1.7 2-3.3 2-11.1 0-6.3.5-10.1 1.6-12.5 1.7-3.6 1.5-10.7-.5-17.9-.6-2.2-1.1-7.4-1.1-11.5 0-5.9-.5-8-2-10-1.1-1.4-2-4-2-5.8 0-1.9-.9-4.5-2-5.9-1.1-1.4-2-3.2-2-4 0-.8-.9-2.6-2-4s-2-3.4-2-4.4c0-1.2-.7-1.9-2-1.9s-2-.7-2-2c0-1.1-.4-2-.9-2-.4 0-2.9-2.6-5.4-5.9-2.7-3.3-5.7-6.1-7.2-6.5-1.4-.4-2.5-1.3-2.5-2.1s-.9-1.5-2-1.5c-1.3 0-2-.7-2-2 0-1.2-.7-2-1.8-2-1 0-2.5-.9-3.5-2-.9-1.1-2.8-2-4.2-2-1.8 0-2.5-.5-2.5-2 0-1.6-.7-2-3.6-2-2.7 0-3.7-.5-4.1-2-.4-1.6-1.4-2-4.4-2-3.2 0-3.9-.3-3.9-2 0-1.6-.7-2-3.8-2-2.6 0-4.1-.6-5-2-.7-1.2-2.3-2-4.1-2-1.5 0-4-.9-5.4-2-1.4-1.1-3.9-2-5.7-2-2.3 0-3.3-.5-3.7-2-.4-1.5-1.4-2-4.2-2-2 0-4.7-.9-6.1-2-1.4-1.1-4.1-2-6.1-2-2.8 0-3.8-.5-4.2-2-.4-1.5-1.4-2-4-2s-3.6-.5-4-2c-.4-1.5-1.4-2-4-2s-3.6-.5-4-2c-.4-1.5-1.4-2-4.1-2-2.4 0-3.6-.5-3.6-1.4 0-1.6-2.1-2.6-5.4-2.6-1.3 0-3.1-.9-4.1-2-1-1.1-2.6-2-3.7-2-1 0-2.7-.9-3.8-2-1.1-1.1-3.1-2-4.5-2-1.8 0-2.5-.5-2.5-2 0-1.2-.7-2-1.7-2-1.8 0-11.3-9.3-11.3-11 0-.5-.7-1-1.5-1s-1.5-.8-1.5-1.8c0-.9-.9-2.3-2-3-1.4-.8-2-2.3-2-4.6 0-2.1-.8-4-2.1-5.2-1.9-1.7-2-2.7-1.7-16.7.3-12.9.5-15 2.1-15.8 1.1-.7 1.7-2.2 1.7-4.5 0-2.7.5-3.7 2-4.1 1.1-.3 2-1.4 2-2.4 0-1.2.7-1.9 2-1.9s2-.7 2-2c0-1.2.7-2 1.8-2 .9 0 2.3-.9 3-2 .7-1.2 2.3-2 4.1-2 2 0 3-.6 3.4-2 .4-1.5 1.4-2 3.7-2 1.8 0 4.3-.9 5.7-2 1.8-1.4 4.1-2 7.4-2 3.7 0 5.4-.5 6.6-2 1.6-1.9 3-2 22.9-2 19.6 0 21.3.1 23.7 2 2 1.6 4 2 9.4 2 5.6 0 7.2.4 8.6 2 1.2 1.5 2.9 2 6.4 2 3.7 0 5.1.5 6.1 2 .9 1.6 2.3 2 6.1 2 4 0 5 .3 5.4 2 .4 1.6 1.4 2 4.5 2 2.6 0 4.5.6 5.7 2 1 1.1 2.9 2 4.2 2 1.2 0 3.2.9 4.4 2.1 1.4 1.4 3 1.9 5.2 1.7 2.9-.3 3.2-.7 3.5-3.8.2-1.9 1.2-4.3 2.3-5.3 1-1 1.9-2.8 1.9-4 0-1.2.9-2.8 2-3.5 1.2-.7 2-2.3 2-4 0-1.5.9-3.5 2-4.5 1.1-.9 2-2.8 2-4.1 0-1.5.7-2.6 2-2.9 1.5-.4 2-1.4 2-4.2 0-5.1-1.5-7.5-4.8-7.5-1.6 0-3.2-.8-4-2-.7-1.2-2.3-2-4.1-2-2 0-3-.6-3.4-2-.4-1.5-1.4-2-4-2s-3.6-.5-4-2c-.4-1.6-1.4-2-4.6-2-2.8 0-4.8-.7-6.1-2a7.8 7.8 0 0 0-5.2-2c-1.7 0-4-.8-5-1.7-1.1-.9-4.5-2-8-2.4-3.3-.4-6.4-1.3-6.9-2.1s-3.9-1.5-9.9-1.9c-6.4-.3-9.4-.9-10-2-.8-1.1-5.3-1.5-25.2-1.7-23-.2-24.5-.2-27.3 1.8zm510.6 0c-1.8 1.6-3.8 2-9.7 2-6.1 0-7.8.4-9.4 2-1.4 1.4-3.3 2-6.3 2-3.1 0-4.5.5-5.5 2-.8 1.4-2.3 2-4.6 2-4.4 0-6.6.9-6.6 2.6 0 .9-1.2 1.4-3.6 1.4-2.7 0-3.7.5-4.1 2-.4 1.5-1.4 2-4 2s-3.6.5-4 2c-.3 1.1-1.3 2-2.3 2-.9 0-2.5.9-3.5 2s-2.9 2-4.2 2c-1.6 0-2.3.6-2.3 2 0 1.3-.7 2-2 2s-2 .7-2 2-.7 2-2 2-2 .7-2 2-.7 2-2 2-2 .7-2 1.9c0 1-.9 2.1-2 2.4-1.2.3-2 1.4-2 2.6 0 1.2-.9 2.9-2 3.8-1.1 1-2 2.3-2 3 0 .7-.9 2.2-2 3.3-1.1 1.1-2 2.9-2 4.1 0 1.1-.9 3.2-2 4.6-1.1 1.5-2 4.1-2 6 0 2-.9 4.6-2 6-1.9 2.4-2 4.1-2 24.9 0 21.1.1 22.5 2 24.4 1.5 1.5 2 3.3 2 7.1 0 4.2.3 5.2 2 5.6 1.6.4 2 1.4 2 4.4 0 3.2.3 3.9 2 3.9 1.6 0 2 .7 2 3.6 0 2.7.5 3.7 2 4.1 1.1.3 2 1.4 2 2.4 0 1.2.7 1.9 2 1.9s2 .7 2 2c0 1.2.7 2 1.6 2 .9 0 1.8.9 2.1 2 .3 1.1 1.2 2 2 2s1.7.9 2 2c.3 1.1 1.2 2 2 2s1.7.9 2 2c.3 1.1 1.4 2 2.4 2 1.2 0 1.9.7 1.9 2s.7 2 1.9 2c1 0 2.1.9 2.4 2 .4 1.5 1.4 2 3.7 2 2.3 0 3.3.5 3.7 2 .3 1.1 1.3 2 2.3 2 .9 0 2.9.9 4.3 2s3.1 2 3.9 2c.7 0 2.1.9 3.1 2 .9 1.1 2.7 2 4.1 2 1.3 0 3.5.9 4.9 2 1.4 1.1 4 2 6 2 2.6 0 3.6.5 4 2 .4 1.7 1.4 2 5.7 2 4.3 0 5.3.3 5.7 2 .5 1.7 1.4 2 5.9 2 4.3 0 5.5.4 6.4 2 .7 1.4 2.1 2 4.4 2 1.8 0 4.5.9 5.9 2 1.4 1.1 3.5 2 4.6 2 1.2 0 2.9.9 3.8 2 1 1.1 3 2 4.5 2 1.7 0 3.3.8 4 2 .7 1.1 2.3 2 3.6 2 1.2 0 3 .9 3.9 2 1 1.1 2.4 2 3.1 2 .8 0 2.5.9 3.9 2s3.4 2 4.3 2c1 0 2 .9 2.3 2 .3 1.1 1.4 2 2.5 2 1 0 2.7.9 3.7 2s2.6 2 3.7 2 1.8.7 1.8 2 .7 2 2 2c1.1 0 2 .7 2 1.5 0 .9.8 1.9 1.8 2.2 2.2.8 5.7 4.3 6.5 6.5.3 1 1.3 1.8 2.2 1.8.8 0 1.5.7 1.5 1.6 0 .9.9 2.7 2 4.1 1.1 1.4 2 3.3 2 4.2 0 .9.9 3.1 2 4.9 1.8 2.9 2 5 2 18.2 0 12.2-.3 15-1.4 15-1.6 0-2.6 2.1-2.6 5.4 0 1.3-.8 3.4-1.8 4.7-1 1.3-2.1 3.2-2.5 4.1-.3 1-1.3 1.8-2.2 1.8-.8 0-1.5.9-1.5 2 0 1.3-.7 2-2 2s-2 .7-2 2-.7 2-1.9 2c-1 0-2.1.9-2.4 2-.3 1.2-1.4 2-2.6 2-1.2 0-3 .9-4.1 2-1.1 1.1-3.3 2-5.1 2-2.2 0-3.2.5-3.6 2-.4 1.7-1.4 2-5.7 2-3.9 0-5.6.5-6.9 2-2 2.3-9 2.6-45.2 2.1-19-.3-21.2-.5-22.8-2.2-1.4-1.5-3.2-1.9-8.2-1.9-5.4 0-6.6-.3-7.5-2-.8-1.6-2.1-2-6-2s-5.2-.4-6-2c-.8-1.5-2.1-2-5-2-2.7 0-4.7-.7-6-2-1.1-1.1-3.3-2-5.1-2-2.2 0-3.2-.5-3.6-2-.4-1.6-1.4-2-4.4-2-3.2 0-3.9-.3-3.9-2 0-1.6-.7-2-3-2-1.9 0-3.4-.7-4.2-2-.7-1.1-2-2-2.9-2-.9 0-1.9.9-2.2 2-.3 1.1-1.2 2-2.1 2-1.1 0-1.6.9-1.6 3 0 1.9-.7 3.4-2 4.2-1.1.7-2 1.8-2 2.5s-.9 2.2-2 3.3c-1.1 1.1-2 3.1-2 4.5 0 1.5-.6 2.5-1.4 2.5-1.5 0-2.6 2.1-2.6 5.2 0 1.1-.8 2.2-2 2.5-3 .8-2.7 6.5.5 9.8 1.4 1.4 3.2 2.5 3.9 2.5.8 0 1.6.9 1.9 2 .4 1.5 1.4 2 3.7 2 2.3 0 3.3.5 3.7 2 .4 1.5 1.4 2 4 2s3.6.5 4 2c.4 1.5 1.4 2 4 2s3.6.5 4 2c.4 1.5 1.4 2 3.9 2 2.1 0 4.2.8 5.4 2 1.4 1.4 3.3 2 6.4 2 3.5 0 4.5.4 4.9 2 .4 1.7 1.4 2 6 2 3.9 0 6.1.6 8 2 1.9 1.5 4 2 9 2 4.8 0 6.9.5 8.5 1.8 1.9 1.6 4.6 2 19.8 2.5 9.7.3 27.1.3 38.7 0 18.7-.4 21.5-.7 23.9-2.4 1.8-1.3 4.5-1.9 8-1.9 3.7 0 6-.6 7.8-2 1.4-1.1 4.1-2 6-2 2.3 0 4.2-.7 5.3-2 1-1.2 2.9-2 4.7-2 1.8 0 3.7-.8 4.7-2 1-1.1 2.5-2 3.4-2 .9 0 1.9-.9 2.2-2 .4-1.5 1.4-2 3.7-2 2.3 0 3.3-.5 3.7-2 .3-1.1 1.4-2 2.4-2 1.2 0 1.9-.7 1.9-2s.7-2 2-2 2-.7 2-2 .7-2 2-2 2-.7 2-2 .7-2 2-2 2-.7 2-2 .7-2 2-2c1.2 0 2-.7 2-1.8 0-1 .9-2.5 2-3.5 1.1-.9 2-2.8 2-4.1 0-1.5.7-2.6 2-2.9 1.5-.4 2-1.4 2-4s.5-3.6 2-4c1.6-.4 2-1.4 2-4.6 0-2.7.7-4.8 1.9-6 1.3-1.3 2-3.8 2.3-8.6.3-4.9.9-7.1 2.2-8 1.6-1.2 1.7-3.3 1.4-24-.3-20.2-.5-22.8-2-23.9-1.3-1-1.8-2.7-1.8-6.6 0-3.7-.6-5.9-2-7.7-1.1-1.5-2-4.1-2-6 0-2.6-.5-3.6-2-4-1.3-.3-2-1.4-2-2.9 0-1.3-.9-3.2-2-4.1-1.1-1-2-2.5-2-3.5 0-1.1-.8-1.8-2-1.8-1.3 0-2-.7-2-2s-.7-2-2-2-2-.7-2-2-.7-2-2-2-2-.7-2-2-.7-2-2-2-2-.7-2-2-.7-2-1.9-2c-1 0-2.1-.9-2.4-2-.3-1.2-1.4-2-2.6-2-1.2 0-3-.9-4.1-2-1.1-1.1-2.7-2-3.5-2-.8 0-1.9-.9-2.5-2-.7-1.3-2.1-2-3.9-2-2 0-3-.6-3.4-2-.4-1.5-1.4-2-4-2s-3.6-.5-4-2c-.4-1.5-1.4-2-4-2s-3.6-.5-4-2c-.4-1.5-1.4-2-4-2-2.1 0-4.1-.7-5.2-2-1.2-1.4-3.1-2-5.7-2-3.1 0-4.1-.4-4.5-2-.4-1.5-1.4-2-4-2-2 0-4.6-.9-6-2-1.5-1.1-4.1-2-6-2-2.6 0-3.6-.5-4-2-.4-1.5-1.4-2-4-2-2 0-4.6-.9-6-2-1.4-1.1-3.2-2-4-2-.8 0-2.6-.9-4-2s-3.6-2-4.9-2c-1.4 0-3.2-.9-4.1-2-1-1.1-2.8-2-4-2-1.3 0-3.1-.9-4-2-1.1-1.3-3-2-5.1-2-2.5 0-3.5-.5-3.9-2-.3-1.1-1.2-2-2-2s-2.6-.9-4-2-3.4-2-4.4-2c-1.2 0-1.9-.7-1.9-2s-.7-2-2-2-2-.7-2-2-.7-2-2-2c-1.2 0-2-.7-2-1.6 0-.9-.9-2.7-2-4.1-1.1-1.4-2-3.3-2-4.2 0-.9-.9-2.4-2-3.4-1.4-1.2-2-2.9-2-5.7 0-2.3-.8-5.3-1.7-6.7-2.5-3.8-2.5-15.3 0-18 1.1-1.3 1.7-3.6 1.7-7.1 0-4.5.3-5.2 2-5.2 1.3 0 2-.7 2-2 0-1 .6-2.3 1.4-2.7.7-.4 1.9-1.9 2.5-3.1.7-1.3 2.8-3 4.7-3.8 1.9-.8 3.4-2.1 3.4-2.9 0-.9 1-1.5 2.5-1.5 1.4 0 3.3-.9 4.2-2 1.1-1.2 3-2 5-2s3.6-.6 4.1-1.7c.7-1.2 3-1.9 7.8-2.4 4.4-.4 7.2-1.2 7.9-2.3 1.1-1.4 4.1-1.6 22-1.6 18.2 0 21.1.2 22.7 1.7 1.3 1.1 4.2 1.9 8.6 2.1 4.5.3 7.5 1.1 9.1 2.3 1.6 1.3 4 1.9 7.2 1.9 3.8 0 5.2.4 6.1 2 .9 1.4 2.4 2 4.9 2 2.1 0 4.7.8 6.2 2 1.4 1.2 4 2 6.1 2 2.9 0 3.6.4 3.6 2 0 1.7.7 2 4 2 2.8 0 4 .4 4 1.4 0 1.6 2.1 2.6 5.6 2.6 1.7 0 2.4-.6 2.4-1.9 0-1 .9-2.1 2-2.4 1.5-.4 2-1.4 2-4s.5-3.6 2-4c1.5-.4 2-1.4 2-4s.5-3.6 2-4c1.5-.4 2-1.4 2-4s.5-3.6 2-4c1.5-.4 2-1.4 2-4.1 0-2.9.4-3.6 2-3.6 1.3 0 2-.7 2-2s-.7-2-2-2-2-.7-2-2c0-1.6-.7-2-3.6-2-2.7 0-3.7-.5-4.1-2-.3-1.3-1.4-2-2.9-2-1.3 0-3.2-.9-4.1-2-1-1.1-2.7-2-3.9-2-1.1 0-2.9-.9-3.9-2-1.2-1.3-3.1-2-5.5-2-2.9 0-3.9-.5-4.3-2-.4-1.6-1.4-2-5.1-2-3.4 0-5.1-.5-6.3-2-1.3-1.4-3-2-6.2-2-2.7 0-5.1-.6-6.3-1.6-1.1-1.1-4.6-1.9-9.6-2.4-4.7-.4-8.9-1.3-10.3-2.3-2-1.5-5.6-1.7-26.9-1.7-22.9.1-24.7.2-26.9 2zM2120 2586v194l27.6-.2 27.6-.3.1-71.5.2-71.5 44.5-.5c39.6-.4 44.9-.7 48.2-2.3 2.1-1 6.1-1.7 9.2-1.7 4.5 0 5.7-.4 6.6-2 .8-1.5 2.1-2 5.5-2s4.8-.5 5.7-2c.9-1.4 2.4-2 5-2 3.1 0 3.8-.4 3.8-2s.7-2 3.6-2c2.7 0 3.7-.5 4.1-2 .3-1.1 1.3-2 2.2-2 .9 0 2.2-.9 2.9-2 .7-1.1 2.1-2 3.2-2 1 0 2.5-.8 3.2-1.8.7-1 2.1-2.1 3.1-2.5.9-.3 1.7-1.3 1.7-2.2 0-.8.9-1.5 2-1.5 1.3 0 2-.7 2-2s.7-2 2-2c1.1 0 2-.6 2-1.4 0-.7 1.6-3.1 3.6-5.2 1.9-2.2 3.8-5.1 4.1-6.7.4-1.8 1.2-2.7 2.4-2.7s1.9-.7 1.9-1.9c0-1 .9-3 2-4.4 1.1-1.4 2-3.2 2-4 0-.8.9-1.7 2-2 1.5-.4 2-1.4 2-3.7 0-1.8.9-4.3 2-5.7 1.1-1.5 2-4.1 2-6.1s.8-4.4 1.7-5.5c1.3-1.3 2-4.3 2.4-9.9.4-6 1-8.3 2.2-9 1.5-.8 1.7-3.4 1.7-23.4 0-21.2-.1-22.5-2-24.1-1.6-1.4-2-3-2-8.5s-.4-7.2-2-8.8c-1.2-1.2-2-3.3-2-5.5 0-2.4-.6-3.9-2-4.7-1.2-.8-2-2.4-2-4 0-1.7-.8-3.3-2-4-1.1-.7-2-2-2-2.8 0-.8-.9-2.1-2-2.8-1.2-.7-2-2.3-2-3.8 0-1.7-.7-2.8-2-3.1-1.1-.3-2-1.4-2-2.4 0-1.2-.7-1.9-2-1.9s-2-.7-2-2-.7-2-2-2-2-.7-2-2-.7-2-2-2-2-.7-2-2-.7-2-1.9-2c-1 0-2.1-.9-2.4-2-.3-1.2-1.4-2-2.6-2-1.2 0-3-.9-4.1-2-1.1-1.1-2.6-2-3.4-2-.7 0-1.6-.9-1.9-2-.4-1.5-1.4-2-4.1-2-2.9 0-3.6-.4-3.6-2s-.7-2-3.5-2c-2.2 0-4.3-.8-5.5-2-1.2-1.2-3.3-2-5.5-2-2.4 0-3.9-.6-4.7-2-1-1.6-2.4-2-6.8-2-3.9 0-6.2-.6-8-2-2.4-1.9-4.6-2-78.2-2H2120v194zm137-144c1.5 1.5 3.3 2 7 2 3.8 0 5.4.5 6.7 2 1.2 1.3 3 2 5.5 2 3.1 0 3.8.4 3.8 2 0 1.3.7 2 1.9 2 1 0 3 .9 4.4 2 1.4 1.1 3.2 2 4.1 2 .9 0 1.6.8 1.6 2 0 1.3.7 2 2 2s2 .7 2 2 .7 2 2 2 2 .7 2 1.9c0 1 .9 2.1 2 2.4 1.3.3 2 1.4 2 3.1 0 1.5.8 3.1 2 3.8 1.4.9 2 2.4 2 4.6 0 2.5.5 3.5 2 3.9 1.7.5 2 1.4 2 6.1 0 4.1.4 5.8 1.8 6.8s1.8 3.2 2 14c.3 11.6.2 12.9-1.7 15.5-1.5 2.1-2.1 4.3-2.1 8.4 0 4-.4 5.5-1.4 5.5-1.6 0-2.6 2.1-2.6 5.3 0 1.2-.9 2.8-2 3.5-1.3.8-2 2.3-2 4.2 0 2.3-.4 3-2 3-1.3 0-2 .7-2 2 0 1.1-.7 2-1.5 2-.9 0-1.9.8-2.2 1.7-.8 2.3-4.3 5.8-6.5 6.6-1 .3-1.8 1.3-1.8 2.2 0 .8-.8 1.5-1.9 1.5-1 0-2.1.9-2.4 2-.4 1.5-1.4 2-3.7 2-2.3 0-3.3.5-3.7 2-.4 1.5-1.4 2-4.3 2-2.4 0-4.3.7-5.5 2-1.4 1.6-3.1 2-8 2-4.7 0-6.9.5-8.8 2-2.4 1.9-4 2-38 2-32 0-35.5-.2-36.1-1.6-.8-2-.7-143 .1-145 .4-1.2 6.6-1.4 39.9-1.4 38.1 0 39.5.1 41.4 2z"/></svg>
